<?xml version="1.0" encoding="UTF-8" standalone="no"?>
<svg
   viewBox="0 0 1920 1920"
   version="1.1"
   id="svg7"
   sodipodi:docname="workout.svg"
   inkscape:version="1.4.3 (0d15f75042, 2025-12-25)"
   xmlns:inkscape="http://www.inkscape.org/namespaces/inkscape"
   xmlns:sodipodi="http://sodipodi.sourceforge.net/DTD/sodipodi-0.dtd"
   xmlns="http://www.w3.org/2000/svg"
   xmlns:svg="http://www.w3.org/2000/svg">
  <defs
     id="defs7">
    <filter
       inkscape:collect="always"
       style="color-interpolation-filters:sRGB"
       id="filter29"
       x="-0.17132711"
       y="-0.00054170737"
       width="1.3426542"
       height="1.0010834">
      <feGaussianBlur
         inkscape:collect="always"
         stdDeviation="0.067659932"
         id="feGaussianBlur29" />
    </filter>
  </defs>
  <sodipodi:namedview
     id="namedview7"
     pagecolor="#ffffff"
     bordercolor="#000000"
     borderopacity="0.25"
     inkscape:showpageshadow="2"
     inkscape:pageopacity="0.0"
     inkscape:pagecheckerboard="0"
     inkscape:deskcolor="#d1d1d1"
     inkscape:zoom="0.34"
     inkscape:cx="804.41176"
     inkscape:cy="925"
     inkscape:window-width="1920"
     inkscape:window-height="1003"
     inkscape:window-x="0"
     inkscape:window-y="0"
     inkscape:window-maximized="1"
     inkscape:current-layer="svg7" />
  <style
     id="style1">
        .st0{fill:#fff}.st1{fill:none;stroke:#231f20;stroke-width:50;stroke-linecap:round;stroke-linejoin:round;stroke-miterlimit:10}
    </style>
  <path
     class="st0"
     d="m 588.08054,1190.5195 v 1.5 l -46.1,126 -277.8,-1 -84.1,-125 v -1.5 z m 681.99996,0 v 1.5 l 46.1,126 277.8,-1 84.1,-125 v -1.5 z M 588.08054,860.51946 V 1049.5195 H 1269.0805 V 860.51946 Z m 681.99996,-141 v 471.00004 h 408 V 719.51946 Z m 38.2,-117 -38.3,117 h 408 l -91.8,-118.5 z m -1036.29996,-1.5 -91.9,118.5 h 408 l -38.3,-117 z m 316,448.50004 V 860.51946 h 0.1 v -141 h -408 v 471.00004 h 408 v -141 z"
     id="Layer_4" />
  <g
     id="STROKES">
    <path
       class="st1"
       d="M583.1 865.5h681v189H583v-189z"
       id="path1" />
    <path
       class="st1"
       d="M583.1 1195.5h-408v-471h408v330z"
       id="path2" />
    <path
       class="st1"
       d="M175.1 724.5L267 606l277.8 1.5 38.3 117"
       id="path3" />
    <path
       class="st1"
       d="M583.1 1197L537 1323l-277.8-1-84.1-125"
       id="path4" />
    <path
       class="st1"
       d="M1265.1 724.5h408v471h-408z"
       id="path5" />
    <path
       class="st1"
       d="M1673.1 724.5L1581.2 606l-277.9 1.5-38.2 117"
       id="path6" />
    <path
       class="st1"
       d="M1265.1 1197l46.1 126 277.8-1 84.1-125"
       id="path7" />
  </g>
  <path
     style="fill:#918a6f;stroke-width:2.49027"
     d="M 200.46693,960 V 750.81712 H 378.5214 556.57588 V 960 1169.1829 H 378.5214 200.46693 Z"
     id="path8" />
  <path
     style="fill:#918a6f;stroke-width:2.49027"
     d="M 200.46693,960 V 750.81712 H 378.5214 556.57588 V 960 1169.1829 H 378.5214 200.46693 Z"
     id="path9" />
  <path
     style="fill:#918a6f;stroke-width:2.49027"
     d="M 608.8716,960 V 892.76265 H 923.89105 1238.9105 V 960 1027.2374 H 923.89105 608.8716 Z"
     id="path10" />
  <path
     style="fill:#77767b;stroke-width:2.49027;fill-opacity:1"
     d="M 1291.2062,960 V 750.81712 h 178.0545 178.0545 V 960 1169.1829 h -178.0545 -178.0545 z"
     id="path11" />
  <path
     style="fill:#77767b;fill-opacity:1;stroke-width:2.49027"
     d="M 608.8716,960 V 892.76265 H 923.89105 1238.9105 V 960 1027.2374 H 923.89105 608.8716 Z"
     id="path12" />
  <path
     style="fill:#77767b;fill-opacity:1;stroke-width:2.49027"
     d="M 608.8716,960 V 892.76265 H 923.89105 1238.9105 V 960 1027.2374 H 923.89105 608.8716 Z"
     id="path13" />
  <path
     style="fill:#5e5c64;fill-opacity:1;stroke-width:2.49027"
     d="M 200.46693,960 V 750.81712 H 378.5214 556.57588 V 960 1169.1829 H 378.5214 200.46693 Z"
     id="path14" />
  <path
     style="fill:#5e5c64;fill-opacity:1;stroke-width:2.49027"
     d="m 1311.8754,666.14786 10.1115,-32.37354 83.598,-0.008 c 45.9789,-0.005 101.0252,-0.73113 122.3252,-1.6146 l 38.7273,-1.60632 25.3973,32.59872 c 13.9685,17.9293 25.3972,33.22397 25.3972,33.98815 0,0.76419 -71.0253,1.38943 -157.834,1.38943 h -157.834 z"
     id="path15" />
  <path
     style="fill:#5e5c64;fill-opacity:1;stroke-width:2.49027"
     d="m 1316.4906,1260.6651 c -7.0581,-19.5369 -12.833,-36.3462 -12.833,-37.3541 0,-1.0078 72.2961,-1.8324 160.658,-1.8324 h 160.658 l -25.4663,37.3541 -25.4663,37.3541 h -122.3587 -122.3586 z"
     id="path16" />
  <path
     style="fill:#5e5c64;fill-opacity:1;stroke-width:2.49027"
     d="m 249.41773,1260.092 c -13.22644,-19.8522 -24.04808,-36.6615 -24.04808,-37.3541 0,-0.6926 72.15046,-1.2593 160.33435,-1.2593 h 160.33436 l -13.4083,36.5552 c -7.37454,20.1054 -13.40827,36.9147 -13.40827,37.3541 0,0.4394 -55.29509,0.7989 -122.87799,0.7989 H 273.46582 Z"
     id="path17" />
  <path
     style="fill:#5e5c64;fill-opacity:1;stroke-width:2.49027"
     d="m 231.91693,695.40856 c 1.02336,-1.71206 12.57588,-16.98964 25.67225,-33.95018 L 281.40078,630.62104 320,632.18938 c 21.22957,0.86259 76.1765,1.57208 122.10429,1.57664 l 83.50507,0.008 9.60299,29.2607 c 5.28167,16.09338 10.12777,30.66148 10.76916,32.37354 0.92529,2.46989 -31.58124,3.11284 -157.37956,3.11284 -126.16873,0 -158.16572,-0.63568 -156.68502,-3.11284 z"
     id="path18" />
  <path
     style="fill:#5e5c64;fill-opacity:1;stroke-width:2.49027"
     d="M 200.46693,960 V 750.81712 H 378.5214 556.57588 V 960 1169.1829 H 378.5214 200.46693 Z"
     id="path19" />
  <path
     style="fill:#5e5c64;fill-opacity:1;stroke-width:2.49027"
     d="M 608.8716,960 V 892.76265 H 923.89105 1238.9105 V 960 1027.2374 H 923.89105 608.8716 Z"
     id="path20" />
  <path
     style="fill:#5e5c64;fill-opacity:1;stroke-width:2.49027"
     d="M 1291.2062,960 V 750.81712 h 178.0545 178.0545 V 960 1169.1829 h -178.0545 -178.0545 z"
     id="path21" />
  <path
     style="fill:#5e5c64;fill-opacity:1;stroke-width:2.49027"
     d="M 608.8716,960 V 892.76265 H 923.89105 1238.9105 V 960 1027.2374 H 923.89105 608.8716 Z"
     id="path22" />
  <path
     style="fill:#5e5c64;fill-opacity:1;stroke-width:2.49027"
     d=""
     id="path23" />
  <path
     style="fill:#5e5c64;fill-opacity:1;stroke-width:1.76089"
     d="m 261.93216,696.99669 c -17.27083,-0.42256 -26.85355,-1.32089 -26.85355,-2.51736 0,-1.02318 10.4993,-15.69371 23.33177,-32.60118 l 23.33178,-30.74084 11.44577,0.94818 c 6.29518,0.5215 61.02557,1.46751 121.62309,2.10223 l 110.17731,1.15405 9.84811,29.65638 c 6.48394,19.52561 9.20339,30.05483 7.96082,30.82278 -2.04769,1.26554 -236.99666,2.24908 -280.8651,1.17576 z"
     id="path24" />
  <path
     style="fill:#5e5c64;fill-opacity:1;stroke-width:0.236967;filter:url(#filter29)"
     d="m 1290.1659,914.92891 c 0,-149.72354 5e-4,-149.88152 0.4739,-149.88152 0.4734,0 0.4739,0.15798 0.4739,149.88152 0,149.72349 -5e-4,149.88149 -0.4739,149.88149 -0.4734,0 -0.4739,-0.158 -0.4739,-149.88149 z"
     id="path29" />
  <path
     style="fill:#5e5c64;fill-opacity:1;stroke-width:0.236967"
     d="M 1291.3507,914.92891 V 765.04739 h 129.6209 129.6208 v 149.88152 149.88149 h -129.6208 -129.6209 z"
     id="path30" />
  <path
     style="fill:#5e5c64;fill-opacity:1;stroke-width:0.236967"
     d="m 1059.8341,891.58768 v -0.94787 h 89.5735 89.5734 v 0.94787 0.94787 h -89.5734 -89.5735 z"
     id="path31" />
  <path
     style="fill:#5e5c64;fill-opacity:1;stroke-width:0.236967"
     d="m 1290.5806,764.85562 c -0.3846,-0.0742 -0.4147,-0.62864 -0.4147,-7.64551 v -7.56556 h 130.2132 c 130.0553,0 130.2133,5.7e-4 130.2133,0.47393 0,0.47336 -0.158,0.47394 -129.7359,0.47394 h -129.7359 l -0.063,7.17157 c -0.058,6.68352 -0.091,7.16613 -0.4773,7.09163 z"
     id="path32" />
  <path
     style="fill:#5e5c64;fill-opacity:1;stroke-width:0.236967"
     d="m 1290.6948,768.12796 c 0,-0.45616 0.049,-0.64277 0.1084,-0.41469 0.06,0.22808 0.06,0.6013 0,0.82938 -0.06,0.22808 -0.1084,0.0415 -0.1084,-0.41469 z"
     id="path33" />
  <path
     style="fill:#5e5c64;fill-opacity:1;stroke-width:0.236967"
     d="m 1299.8733,699.22986 c 0,-0.0978 4.8669,-15.1212 10.8255,-33.38545 l 10.8338,-33.20772 9.0204,-0.1399 c 9.5811,-0.14859 200.9398,-1.14128 206.7693,-1.07263 3.0968,0.0365 2.7811,0.0699 -3.1991,0.33883 -27.132,1.22007 -67.4461,1.73883 -152.7138,1.96513 l -59.5858,0.15814 -9.8963,31.63507 c -5.4429,17.39929 -9.9681,31.99664 -10.0558,32.43857 l -0.1595,0.8035 124.4402,-0.1146 c 120.7862,-0.11124 124.4402,-0.10178 124.4402,0.32209 0,0.42373 -3.7215,0.43669 -125.3554,0.43669 -68.9455,0 -125.3592,-0.08 -125.3637,-0.17772 z"
     id="path34" />
  <path
     style="fill:#5e5c64;fill-opacity:1;stroke-width:0.236967"
     d="m 1356.1019,699.22986 c -30.7909,-0.0331 -55.9834,-0.13068 -55.9834,-0.21679 0,-0.21922 7.9732,-24.7931 17.9786,-55.41117 l 3.4847,-10.66351 1.8868,-0.15405 c 1.7625,-0.14388 33.9075,-0.36339 134.3513,-0.91743 38.8822,-0.21447 74.2748,-0.259 73.2228,-0.0921 -0.6741,0.10691 -15.0497,0.53792 -26.8958,0.80639 -18.9818,0.43018 -51.8049,0.75773 -93.3649,0.9317 l -41.5877,0.17409 37.9147,0.0387 c 58.3975,0.0596 97.6709,-0.50143 130.3318,-1.86176 6.1256,-0.25513 11.5906,-0.46431 12.1445,-0.46484 l 1.0071,-9.6e-4 v 33.37311 33.37311 l -33.4516,0.1577 c -45.7507,0.21568 -215.1277,0.19991 -215.122,-0.02 0,-0.0977 4.521,-14.62678 10.041,-32.28673 5.52,-17.65995 9.9966,-32.15344 9.948,-32.20774 -0.049,-0.0543 -0.1449,-0.0422 -0.214,0.0269 -0.2119,0.21187 -19.6251,62.45246 -20.102,64.44894 l -0.1512,0.63305 121.86,-0.11861 c 67.3009,-0.0655 122.8149,-0.0273 123.9928,0.0852 2.3912,0.22859 -80.629,0.58089 -114.455,0.4857 -11.4692,-0.0323 -46.0456,-0.0858 -76.8365,-0.11891 z"
     id="path35" />
  <path
     style="fill:#5e5c64;fill-opacity:1;stroke-width:0.236967"
     d="m 1549.8223,699.23616 c 0.4236,-0.0526 0.7701,-0.19545 0.7701,-0.31752 0,-0.12341 -1.0697,-0.22196 -2.4091,-0.22196 -1.3251,0 -2.3535,-0.0557 -2.2854,-0.12379 0.068,-0.0681 11.0426,-0.22748 24.3878,-0.35421 24.946,-0.23691 45.0022,-0.60708 46.3612,-0.85567 0.4236,-0.0775 0.7702,-0.27744 0.7702,-0.44435 0,-1.00637 -12.4313,-17.4164 -39.3125,-51.89496 -10.6564,-13.66818 -10.7114,-13.7445 -9.9679,-13.82003 0.4113,-0.0418 0.775,-0.0418 0.8083,0 1.2077,1.51559 52.4644,67.70633 52.5862,67.9077 0.1431,0.23653 -7.141,0.28857 -36.1499,0.25829 -19.981,-0.0209 -35.9826,-0.0809 -35.559,-0.1335 z"
     id="path36" />
  <path
     style="fill:#5e5c64;fill-opacity:1;stroke-width:0.236967"
     d="m 1342.2986,665.58321 v -32.94466 l 9.5379,-0.14537 c 24.9739,-0.38066 182.0411,-0.94288 175.7701,-0.62918 -16.8072,0.84078 -74.0166,1.58364 -134.0047,1.74005 -10.1659,0.0265 -2.8614,0.0737 16.2322,0.10494 33.8158,0.0553 62.0329,-0.15534 87.5593,-0.65356 17.6639,-0.34476 25.584,-0.59712 48.7902,-1.55464 11.1947,-0.46192 20.4307,-0.75396 20.5244,-0.64899 0.3132,0.35101 25.1779,32.32261 30.8802,39.70657 9.6105,12.44445 18.4458,24.30686 19.3181,25.93679 0.227,0.42414 0.1891,0.51263 -0.2686,0.6275 -0.9346,0.23459 -20.6627,0.62571 -44.2443,0.87717 -12.577,0.13412 -69.4935,0.30779 -126.4811,0.38594 l -103.6137,0.14209 z"
     id="path37" />
  <path
     style="fill:#5e5c64;fill-opacity:1;stroke-width:0.236967"
     d="m 1648.1034,1042.7725 c 0,-70.31397 0.027,-99.07878 0.06,-63.92179 0.033,35.15699 0.033,92.68659 0,127.84359 -0.033,35.157 -0.06,6.3922 -0.06,-63.9218 z"
     id="path38" />
  <path
     style="fill:#5e5c64;fill-opacity:1;stroke-width:0.236967"
     d="m 1648.0817,1113.981 c 3e-4,-2.0853 0.037,-2.9066 0.081,-1.8252 0.044,1.0814 0.044,2.7876 -6e-4,3.7915 -0.044,1.0039 -0.08,0.1191 -0.08,-1.9663 z"
     id="path39" />
  <path
     style="fill:#5e5c64;fill-opacity:1;stroke-width:0.236967"
     d="m 1343.9573,1169.9052 v -0.5924 h 151.7773 151.7772 v -127.1327 c 0,-84.59716 0.079,-127.13271 0.237,-127.13271 0.1577,0 0.237,42.73302 0.237,127.72511 v 127.7251 h -152.0142 -152.0143 z"
     id="path40" />
  <path
     style="fill:#5e5c64;fill-opacity:1;stroke-width:0.236967"
     d="m 1343.9573,1169.9052 v -0.5924 h 151.7773 151.7772 l 0.04,-69.2536 c 0.022,-38.0894 0.1165,-67.8673 0.2099,-66.1729 0.093,1.6943 0.182,33.125 0.1969,69.8459 l 0.027,66.7654 h -152.0142 -152.0143 z"
     id="path41" />
  <path
     style="fill:#5e5c64;fill-opacity:1;stroke-width:0.236967"
     d="m 1343.9573,1169.9052 v -0.5924 h 151.7773 151.7772 l 0.043,-69.2536 c 0.024,-38.0894 0.1102,-68.4537 0.1927,-67.4763 0.082,0.9775 0.1707,32.4082 0.1959,69.846 l 0.046,68.0687 h -152.0158 -152.0158 z"
     id="path42" />
  <path
     style="fill:#5e5c64;fill-opacity:1;stroke-width:0.236967"
     d="m 1343.9573,1297.0765 v -0.7495 l 115.1067,-0.01 115.1066,-0.01 25.3555,-37.2123 c 13.9455,-20.4667 25.3943,-37.3208 25.4419,-37.4536 0.092,-0.2558 -251.8384,-0.088 -270.9988,0.1808 l -10.0119,0.1403 v -0.7328 -0.7328 h 141.4965 141.4964 l -0.4241,0.6517 c -2.0836,3.2014 -50.6894,75.3597 -50.8971,75.5599 -0.1987,0.1916 -22.9362,0.3385 -83.0935,0.5371 -45.5509,0.1503 -97.6155,0.3423 -115.699,0.4265 l -32.8792,0.1532 z"
     id="path43" />
  <path
     style="fill:#5e5c64;fill-opacity:1;stroke-width:0.236967"
     d="m 1343.9573,1297.0622 v -0.7352 l 115.2252,-0.01 115.2251,-0.01 3.7109,-5.5004 c 2.041,-3.0253 9.5979,-14.1379 16.793,-24.6948 20.334,-29.8342 29.8226,-43.8432 29.9877,-44.2735 0.1413,-0.368 -7.7381,-0.3907 -116.5208,-0.3357 l -116.6722,0.059 116.4296,0.06 c 64.0363,0.033 116.3941,0.149 116.3507,0.2581 -0.043,0.1091 -11.4337,16.8507 -25.3118,37.2035 l -25.2329,37.0052 h -114.9923 -114.9922 v -36.9668 -36.9668 l 6.2204,-0.034 c 3.4212,-0.019 14.0048,-0.108 23.519,-0.1985 l 17.2986,-0.1645 -23.519,0.021 -23.5191,0.021 10e-5,-0.6516 v -0.6517 h 141.3508 c 77.7428,0 141.3507,0.051 141.3507,0.1137 0,0.1477 -26.4071,39.4204 -47.2707,70.3012 l -3.7865,5.6045 -1.9003,0.1448 c -1.8034,0.1374 -66.6242,0.4462 -152.0188,0.7242 -21.4396,0.07 -47.6985,0.1909 -58.3531,0.2692 l -19.3721,0.1422 z"
     id="path44" />
  <path
     style="fill:#5e5c64;fill-opacity:1;stroke-width:0.236967"
     d=""
     id="path46" />
  <path
     style="fill:#5e5c64;fill-opacity:1;stroke-width:0.236967"
     d=""
     id="path47" />
  <path
     style="fill:#5e5c64;fill-opacity:1;stroke-width:0.236967"
     d="m 1290.1659,1117.7725 c 0,-52.5671 0,-52.7251 0.4739,-52.7251 0.4725,0 0.4739,0.158 0.4739,52.1327 v 52.1327 h 26.4218 26.4218 v 0.5924 0.5924 h -26.8957 -26.8957 z"
     id="path48" />
  <path
     style="fill:#5e5c64;fill-opacity:1;stroke-width:0.236967"
     d="m 1328.7098,1297.5711 c -0.1345,-0.2181 -27.9023,-76.0786 -28.06,-76.6588 -0.1067,-0.3927 1.0362,-0.4147 21.5974,-0.4147 h 21.7101 v 0.6871 0.687 l -2.9028,0.1356 c -1.5966,0.075 -7.4881,0.1961 -13.0924,0.2699 -10.5697,0.1391 -21.2118,0.4725 -23.1635,0.7256 -0.966,0.1252 -1.1256,0.2215 -1.1256,0.6789 0,0.2932 1.1638,3.9888 2.5862,8.2124 3.721,11.0489 5.8868,17.1461 17.7526,49.9779 l 5.1814,14.3365 7.382,0.063 7.3821,0.063 v 0.7075 0.7075 h -7.5689 c -4.1629,0 -7.6183,-0.08 -7.6786,-0.1777 z"
     id="path49" />
  <path
     style="fill:#5e5c64;fill-opacity:1;stroke-width:0.236967"
     d="m 1647.5118,832.81991 v -82.22749 l -49.2298,-0.0379 c -27.0764,-0.0208 -48.8833,-0.0809 -48.4597,-0.13349 0.4236,-0.0526 0.7701,-0.1887 0.7701,-0.30252 0,-0.11381 -0.3465,-0.24994 -0.7701,-0.30251 -0.4236,-0.0526 21.4899,-0.11264 48.6967,-0.1335 l 49.4668,-0.0379 v 82.70142 c 0,54.9763 -0.079,82.70142 -0.237,82.70142 -0.1575,0 -0.237,-27.56714 -0.237,-82.22748 z"
     id="path50" />
  <path
     style="fill:#5e5c64;fill-opacity:1;stroke-width:0.236967"
     d="m 1647.5191,899.52607 c 0,-0.26067 0.1034,-0.63389 0.2297,-0.82939 0.1902,-0.29433 0.2297,-0.27396 0.2297,0.11849 0,0.26066 -0.1033,0.63388 -0.2297,0.82938 -0.1902,0.29434 -0.2297,0.27397 -0.2297,-0.11848 z"
     id="path51" />
  <path
     style="fill:#5e5c64;fill-opacity:1;stroke-width:0.236967"
     d="m 1290.2578,1118.0768 c 0.093,-28.8315 0.2165,-52.4689 0.2752,-52.5277 0.059,-0.059 0.1513,-0.062 0.2057,-0.01 0.054,0.054 0.1771,23.4252 0.2729,51.9352 l 0.1741,51.8364 h 121.291 121.2911 v 0.5924 0.5924 h -121.8393 -121.8392 z"
     id="path52" />
  <path
     style="fill:#5e5c64;fill-opacity:1;stroke-width:0.236967"
     d="m 864.33649,1028.436 v -1.0663 h 187.32231 187.3222 v 1.0663 1.0664 H 1051.6588 864.33649 Z"
     id="path53" />
  <path
     style="fill:#5e5c64;fill-opacity:1;stroke-width:0.236967"
     d="m 864.33649,959.95261 v -67.1801 h 187.20381 187.2038 v 67.1801 67.18009 H 1051.5403 864.33649 Z"
     id="path54" />
  <path
     style="fill:#5e5c64;fill-opacity:1;stroke-width:0.236967"
     d="m 743.20678,892.59479 c 67.5552,-0.0328 178.02912,-0.0328 245.49763,0 67.46849,0.0328 12.19609,0.0597 -122.82763,0.0597 -135.0237,0 -190.2252,-0.0269 -122.67,-0.0597 z"
     id="path55" />
  <path
     style="fill:#5e5c64;fill-opacity:1;stroke-width:0.236967"
     d="m 620.49763,891.58768 v -0.94787 h 219.66825 219.66822 v 0.94787 0.94787 H 840.16588 620.49763 Z"
     id="path56" />
  <path
     style="fill:#5e5c64;fill-opacity:1;stroke-width:0.236967"
     d="m 620.49763,1028.436 v -1.0663 h 121.91943 121.91943 v 1.0663 1.0664 H 742.41706 620.49763 Z"
     id="path57" />
  <path
     style="fill:#5e5c64;fill-opacity:1;stroke-width:0.236967"
     d="m 608.17536,960.07109 v -69.43128 h 6.16113 6.16114 v 0.94373 0.94373 l -5.86493,0.0634 -5.86493,0.0634 -0.0597,67.35782 -0.0597,67.35781 h 5.92458 5.92458 v 1.0663 1.0664 h -6.16114 -6.16113 z"
     id="path58" />
  <path
     style="fill:#5e5c64;fill-opacity:1;stroke-width:0.236967"
     d="m 556.75355,874.17062 v -123.5782 h -84.36019 c -84.20221,0 -84.36018,-8.9e-4 -84.36018,-0.47394 0,-0.47305 0.15797,-0.47393 84.9526,-0.47393 h 84.95261 v 124.05213 124.05214 h -0.59242 -0.59242 z"
     id="path59" />
  <path
     style="fill:#5e5c64;fill-opacity:1;stroke-width:0.236967"
     d="M 200.59242,818.95735 V 750.82938 H 378.5545 556.51659 v 68.12797 68.12796 H 378.5545 200.59242 Z"
     id="path60" />
  <path
     style="fill:#5e5c64;fill-opacity:1;stroke-width:0.236967"
     d="m 289.51422,750.65166 c 48.97215,-0.0329 129.10841,-0.0329 178.08057,0 48.97215,0.0329 8.90403,0.0599 -89.04029,0.0599 -97.94431,0 -138.01244,-0.0269 -89.04028,-0.0599 z"
     id="path61" />
  <path
     style="fill:#5e5c64;fill-opacity:1;stroke-width:0.236967"
     d="m 317.73158,750.65169 c 7.7974,-0.0347 20.48697,-0.0347 28.19905,10e-6 7.71209,0.0347 1.3324,0.063 -14.17708,0.063 -15.50947,-10e-6 -21.81936,-0.0284 -14.02197,-0.063 z"
     id="path62" />
  <path
     style="fill:#5e5c64;fill-opacity:1;stroke-width:0.236967"
     d="m 289.51422,749.46683 c 49.23282,-0.0329 129.79561,-0.0329 179.02843,0 49.23282,0.0329 8.95143,0.0599 -89.51421,0.0599 -98.46564,0 -138.74704,-0.0269 -89.51422,-0.0599 z"
     id="path63" />
  <path
     style="fill:#5e5c64;fill-opacity:1;stroke-width:0.236967"
     d="m 200.17732,818.42417 -0.0588,-68.77962 94.49052,0.0323 c 51.96979,0.0177 94.2506,0.0785 93.95735,0.13497 -0.29325,0.0565 -0.53317,0.19449 -0.53317,0.30669 0,0.11221 0.23992,0.25022 0.53317,0.3067 0.29325,0.0565 -41.93406,0.11722 -93.83846,0.13497 l -94.37163,0.0323 -0.06,68.30568 -0.0601,68.30569 z"
     id="path64" />
  <path
     style="fill:#5e5c64;fill-opacity:1;stroke-width:0.236967"
     d="m 434.06398,698.52157 c 0.74941,-0.047 1.97571,-0.047 2.72512,0 0.74941,0.047 0.13626,0.0855 -1.36256,0.0855 -1.49881,0 -2.11197,-0.0385 -1.36256,-0.0855 z"
     id="path65" />
  <path
     style="fill:#5e5c64;fill-opacity:1;stroke-width:0.236967"
     d="m 323.10427,698.97795 c 0,-0.41368 1.63031,-0.42595 43.8981,-0.33046 46.40293,0.10484 131.25546,-0.27192 148.40047,-0.65891 11.2394,-0.2537 19.81846,-0.59356 24.17062,-0.95754 3.09222,-0.25861 6.18756,-0.83729 6.41081,-1.19852 0.0772,-0.12499 -2.79237,-9.10218 -6.37693,-19.94932 -3.58456,-10.84713 -8.16055,-24.73391 -10.16885,-30.8595 l -3.65147,-11.13744 -56.49541,-0.14679 c -71.05107,-0.18461 -99.33334,-0.43168 -132.2063,-1.15495 -12.77606,-0.28109 -13.98104,-0.35726 -13.98104,-0.88373 0,-0.33417 1.81799,-0.35538 18.54265,-0.21637 10.19846,0.0848 51.91943,0.3146 92.71327,0.51076 40.79384,0.19615 78.23218,0.42078 83.19632,0.49918 l 9.02571,0.14253 9.67474,29.53464 c 5.32111,16.24405 10.23259,31.26745 10.9144,33.38534 l 1.23967,3.85071 H 435.75764 c -108.62342,0 -112.65337,-0.0154 -112.65337,-0.42963 z"
     id="path66" />
  <path
     style="fill:#5e5c64;fill-opacity:1;stroke-width:0.236967"
     d=""
     id="path67" />
  <path
     style="fill:#5e5c64;fill-opacity:1;stroke-width:0.236967"
     d="m 227.53543,697.92654 c 0.63629,-0.81457 12.54698,-16.17002 26.4682,-34.12322 23.4859,-30.28809 25.36179,-32.64218 26.01142,-32.64218 0.49952,0 0.6478,0.0849 0.51751,0.29621 -0.10044,0.16291 -6.10964,7.97393 -13.35377,17.35782 -27.29745,35.36048 -35.30675,45.97674 -35.30675,46.79879 0,1.06294 5.8189,1.66247 20.7346,2.13629 10.12953,0.32178 38.59018,0.69286 57.46445,0.74924 8.4064,0.0251 14.77784,0.0856 14.15877,0.13441 -1.23206,0.0971 -1.50696,0.44746 -0.47394,0.60396 0.35842,0.0543 -21.40487,0.11469 -48.36286,0.13422 l -49.01452,0.0355 z"
     id="path68" />
  <path
     style="fill:#5e5c64;fill-opacity:1;stroke-width:0.236967"
     d="m 312.32227,631.75471 -5.92417,-0.2762 8.35308,-0.0402 c 7.28486,-0.0351 8.35309,0.005 8.35309,0.31524 0,0.42523 -1.68218,0.42541 -10.782,10e-4 z"
     id="path69" />
  <path
     style="fill:#5e5c64;fill-opacity:1;stroke-width:0.236967"
     d=""
     id="path70" />
  <path
     style="fill:#5e5c64;fill-opacity:1;stroke-width:0.236967"
     d="m 396.50474,1169.1351 c 29.35723,-0.033 77.39633,-0.033 106.75355,0 29.35723,0.033 5.33768,0.06 -53.37677,0.06 -58.71446,0 -82.73401,-0.027 -53.37678,-0.06 z"
     id="path71" />
  <path
     style="fill:#5e5c64;fill-opacity:1;stroke-width:0.236967"
     d="m 556.63333,1105.9242 c 0,-34.7986 0.0274,-48.9991 0.061,-31.5568 0.0335,17.4424 0.0335,45.914 -1e-5,63.2702 -0.0335,17.3562 -0.061,3.0851 -0.061,-31.7134 z"
     id="path72" />
  <path
     style="fill:#5e5c64;fill-opacity:1;stroke-width:0.236967"
     d="m 343.24645,1169.9052 v -0.5924 H 450 556.75355 v -63.2701 -63.2702 h 0.59242 0.59242 v 63.8626 63.8625 H 450.59242 343.24645 Z"
     id="path73" />
  <path
     style="fill:#5e5c64;fill-opacity:1;stroke-width:0.236967"
     d="m 200.17729,1106.5758 0.0588,-63.9218 0.0601,63.3294 0.0601,63.3294 h 71.44506 71.44507 v 0.5924 0.5924 h -71.56399 -71.56398 z"
     id="path74" />
  <path
     style="fill:#5e5c64;fill-opacity:1;stroke-width:0.236967"
     d=""
     id="path75" />
  <path
     style="fill:#5e5c64;fill-opacity:1;stroke-width:0.236967"
     d=""
     id="path76" />
  <path
     style="fill:#5e5c64;fill-opacity:1;stroke-width:0.236967"
     d="m 514.6327,1297.8116 c 0.61908,-0.049 1.63211,-0.049 2.25119,0 0.61907,0.049 0.11256,0.089 -1.1256,0.089 -1.23815,0 -1.74466,-0.04 -1.12559,-0.089 z"
     id="path77" />
  <path
     style="fill:#5e5c64;fill-opacity:1;stroke-width:0.236967"
     d="m 427.25118,1297.5032 c -22.15639,-0.088 -65.99993,-0.2432 -97.43007,-0.3454 l -57.14571,-0.1857 -17.21486,-25.578 c -16.96903,-25.2128 -17.21383,-25.593 -17.14338,-26.6273 0.0714,-1.0485 0.0857,-1.0279 17.57868,25.2554 l 17.50722,26.3048 82.72975,-0.01 c 79.50544,-0.01 146.82378,-0.266 157.90051,-0.6102 l 5.26552,-0.1637 0.2755,-0.8541 c 1.14912,-3.5624 7.48348,-21.0604 18.55177,-51.2473 4.38017,-11.9462 7.96394,-21.7833 7.96394,-21.8602 0,-0.077 -52.65107,-0.1387 -117.00237,-0.1372 -107.16277,0 -166.75858,0.1984 -184.12323,0.6054 l -6.69431,0.1569 v -0.8564 -0.8565 h 154.7373 154.7373 l -0.55154,1.4811 c -0.30334,0.8145 -6.66474,18.1961 -14.1364,38.6256 l -13.58488,37.1445 -25.96818,-0.043 c -14.28251,-0.024 -44.09616,-0.1148 -66.25256,-0.2026 z"
     id="path78" />
  <path
     style="fill:#5e5c64;fill-opacity:1;stroke-width:0.236967"
     d="m 502.60664,1297.5959 c -7.95024,-0.027 -54.92299,-0.163 -104.38389,-0.303 -49.4609,-0.1401 -97.94099,-0.3209 -107.73352,-0.4017 l -17.80461,-0.147 -7.66933,-11.4021 c -25.04313,-37.2321 -26.50818,-39.4596 -26.50818,-40.3037 0,-0.758 1.45406,1.3599 18.65326,27.1698 l 16.06238,24.1039 92.29858,3e-4 c 86.99976,2e-4 146.55182,-0.2352 151.68502,-0.5998 l 2.27744,-0.1618 0.41405,-1.3299 c 0.6369,-2.0458 6.30908,-17.7872 13.15925,-36.5195 10.74246,-29.3761 13.03296,-35.6997 13.03296,-35.9816 0,-0.2074 -30.92659,-0.2732 -126.8365,-0.2696 -115.93531,0 -173.47193,0.2008 -178.90995,0.6109 l -2.07346,0.1564 v -0.8599 -0.86 h 154.63682 154.63683 l -0.16365,0.5156 c -0.09,0.2836 -6.42839,17.6385 -14.08528,38.5664 l -13.92164,38.0507 -1.1558,0.01 c -0.63569,0 -7.66055,-0.015 -15.61078,-0.041 z"
     id="path79" />
  <path
     style="fill:#5e5c64;fill-opacity:1;stroke-width:0.236967"
     d="m 235.63018,1241.9204 c -1.38681,-2.0728 -5.19698,-7.7409 -8.46704,-12.5958 l -5.94556,-8.827 h 8.52628 8.52628 v 0.8294 0.8294 l -2.78436,0.02 c -4.09881,0.029 -9.95179,0.315 -10.1312,0.4944 -0.0858,0.086 -0.0255,0.4051 0.134,0.7095 0.56306,1.0745 4.62462,7.5056 8.93705,14.1509 2.41454,3.7207 4.25894,6.7909 4.12835,6.872 -0.12983,0.081 -0.27347,0.403 -0.31919,0.7164 -0.0673,0.461 -0.56385,-0.1489 -2.60461,-3.1991 z"
     id="path80" />
  <path
     style="fill:#5e5c64;fill-opacity:1;stroke-width:0.123762"
     d="m 556.68238,989.17079 c 2.4e-4,-42.78156 0.0145,-58.33385 0.0317,-34.56064 l 0.0313,43.22401 h 0.61864 0.61863 v 22.46284 22.4629 h -0.6182 -0.6182 l -0.0322,12.0978 c -0.0177,6.6537 -0.032,-22.9053 -0.0317,-65.68691 z"
     id="path81" />
  <path
     style="fill:#5e5c64;fill-opacity:1;stroke-width:0.123762"
     d="m 556.67823,1000.7426 c 3e-5,-3.06314 0.0161,-4.29851 0.0358,-2.74529 0.0196,1.55323 0.0196,4.05939 -5e-5,5.56929 -0.0197,1.5099 -0.0358,0.2391 -0.0357,-2.824 z"
     id="path82" />
  <path
     style="fill:#5e5c64;fill-opacity:1;stroke-width:0.0816993"
     d="m 608.71293,998.87663 c 0.007,-15.64848 0.0359,-35.76797 0.0652,-44.70996 0.0399,-12.15493 0.0575,-4.98459 0.0697,28.41084 l 0.0164,44.66899 33.23121,0.021 33.23121,0.021 -33.31291,0.02 -33.31291,0.02 z"
     id="path83" />
  <path
     style="fill:#5e5c64;fill-opacity:1;stroke-width:0.0816993"
     d="m 608.72471,1008.1699 c -8.7e-4,-1.2132 0.0238,-2.647 0.0547,-3.1862 0.0421,-0.7331 0.0579,-0.3518 0.0625,1.5114 0.003,1.3705 -0.0212,2.8043 -0.0547,3.1863 -0.0427,0.4866 -0.0614,0.034 -0.0625,-1.5115 z"
     id="path84" />
  <path
     style="fill:#5e5c64;fill-opacity:1;stroke-width:0.0619195"
     d="m 608.85302,999.93808 c 0,-2.6904 0.008,-3.78198 0.0169,-2.42573 0.009,1.35624 0.009,3.55745 -10e-6,4.89165 -0.009,1.3341 -0.0169,0.2245 -0.0169,-2.46592 z"
     id="path85" />
  <path
     style="fill:#5e5c64;fill-opacity:1;stroke-width:0.0619195"
     d="m 608.79234,994.48916 c 0,-18.04953 0.007,-25.44268 0.0157,-16.42922 0.009,9.01347 0.009,23.78126 0,32.81736 -0.009,9.0361 -0.0157,1.6614 -0.0157,-16.38814 z"
     id="path86" />
  <path
     style="fill:#5e5c64;fill-opacity:1;stroke-width:0.0619195"
     d="m 608.79234,994.48916 c 0,-18.04953 0.007,-25.44268 0.0157,-16.42922 0.009,9.01347 0.009,23.78126 0,32.81736 -0.009,9.036 -0.0157,1.6614 -0.0157,-16.38814 z m 0.0931,-5.63467 v -38.35913 h 22.94118 22.94117 v 38.35913 38.35911 h -22.94117 -22.94118 z"
     id="path87" />
  <path
     style="fill:#5e5c64;fill-opacity:1;stroke-width:0.0619195"
     d="m 556.81115,974.11765 v -23.62229 h 0.55727 0.55728 v 23.62229 23.62229 h -0.55728 -0.55727 z"
     id="path88" />
  <path
     style="fill:#5e5c64;fill-opacity:1;stroke-width:0.0619195"
     d="m 556.81115,974.11765 v -23.62229 h 0.55727 0.55728 v 23.62229 23.62229 h -0.55728 -0.55727 z"
     id="path89" />
  <path
     style="fill:#5e5c64;fill-opacity:1;stroke-width:0.0619195"
     d="m 556.81115,974.11765 v -23.62229 h 0.55727 0.55728 v 23.62229 23.62229 h -0.55728 -0.55727 z"
     id="path90" />
  <path
     style="fill:#5e5c64;fill-opacity:1;stroke-width:0.0355619"
     d="m 608.73044,998.56566 c 0,-16.46265 0.0367,-31.40705 0.077,-31.40705 0.0163,0 0.0297,10.1218 0.0297,22.49288 0,19.97001 -0.006,22.49291 -0.0534,22.49291 -0.0473,0 -0.0533,-1.5325 -0.0533,-13.57874 z"
     id="path91" />
  <path
     style="fill:#5e5c64;fill-opacity:1;stroke-width:0.0355619"
     d="m 608.71034,999.59104 c 0,-0.49876 0.005,-0.70279 0.0111,-0.45342 0.006,0.24938 0.006,0.65745 0,0.90688 -0.006,0.2493 -0.0111,0.045 -0.0111,-0.45346 z"
     id="path92" />
  <path
     style="fill:#5e5c64;fill-opacity:1;stroke-width:0.0355619"
     d="m 608.69769,999.85479 c 0.002,-0.0414 0.0101,-0.0499 0.0215,-0.0215 0.0103,0.0257 0.009,0.0563 -0.003,0.0682 -0.0118,0.0118 -0.0202,-0.009 -0.0187,-0.0467 z"
     id="path93" />
  <path
     style="fill:#5e5c64;fill-opacity:1;stroke-width:0.0355619"
     d=""
     id="path94" />
  <path
     style="fill:#5e5c64;fill-opacity:1;stroke-width:0.0355619"
     d="m 608.19701,989.65149 v -22.49288 h 0.25483 0.25482 l -0.0237,6.05441 c -0.013,3.32992 -0.0237,13.45172 -0.0237,22.49288 l -10e-6,16.4385 h -0.23115 -0.23116 z"
     id="path95" />
  <path
     style="fill:#5e5c64;fill-opacity:1;stroke-width:0.0156079"
     d="m 530.05486,643.20665 c -0.007,-0.0193 -0.78782,-2.40206 -1.73477,-5.29499 -0.94695,-2.89293 -1.72579,-5.26465 -1.73076,-5.27049 -0.01,-0.0115 -0.54315,-0.0213 -4.98796,-0.0908 -3.87545,-0.0607 -4.91485,-0.0754 -6.04026,-0.0856 -0.51507,-0.005 -1.2262,-0.0127 -1.58031,-0.0179 l -0.64382,-0.009 v -0.053 -0.053 l 0.62041,0.008 c 0.34123,0.005 2.882,0.0193 5.64617,0.0326 2.76416,0.0134 5.47865,0.029 6.03218,0.0348 l 1.00644,0.0105 1.76782,5.40034 c 0.97231,2.97019 1.76785,5.40561 1.76788,5.41205 3e-5,0.006 -0.0247,0.0117 -0.055,0.0117 -0.0428,0 -0.0579,-0.008 -0.0681,-0.0351 z"
     id="path96" />
  <path
     style="fill:#5e5c64;fill-opacity:1;stroke-width:0.0156079"
     d="m 530.09675,643.23008 c -0.02,-0.004 -0.088,-0.1931 -0.27587,-0.7658 -0.65097,-1.98399 -2.97194,-9.06318 -3.08981,-9.42423 l -0.13312,-0.40775 -0.32879,-0.0103 c -0.71415,-0.0223 -8.67373,-0.14304 -10.88755,-0.1652 -0.89706,-0.009 -1.72409,-0.0204 -1.83783,-0.0254 l -0.2068,-0.009 v -0.0442 c 0,-0.0409 0.004,-0.0437 0.0507,-0.0376 0.0279,0.004 1.36765,0.0137 2.97721,0.0223 1.60957,0.009 4.36281,0.0234 6.11831,0.0328 1.7555,0.009 3.40854,0.0217 3.67342,0.0274 l 0.48159,0.0103 0.62342,1.90416 c 0.53551,1.63567 1.98052,6.05369 2.68326,8.20385 0.11958,0.36588 0.21741,0.66889 0.21741,0.67338 0,0.0132 -0.0369,0.0218 -0.0656,0.0154 z"
     id="path97" />
  <path
     style="fill:#5e5c64;fill-opacity:1;stroke-width:0.0156079"
     d="m 530.09697,643.23013 c -0.0311,-0.007 0.0511,0.2381 -1.15253,-3.43772 -0.7651,-2.3366 -1.94035,-5.91835 -2.26104,-6.8909 l -0.0875,-0.26533 -0.26533,-0.0112 c -0.48478,-0.0205 -8.49982,-0.14353 -10.94897,-0.16808 -0.89706,-0.009 -1.72409,-0.0205 -1.83783,-0.0255 l -0.2068,-0.009 v -0.0442 c 0,-0.0409 0.004,-0.0437 0.0507,-0.0376 0.0279,0.004 1.37116,0.0137 2.98502,0.0224 1.61386,0.009 4.3671,0.0234 6.11831,0.0328 1.75121,0.009 3.40089,0.0217 3.66596,0.0274 l 0.48195,0.0103 0.88886,2.71578 c 1.514,4.62582 1.68192,5.13918 2.16518,6.61952 0.25814,0.79073 0.46934,1.44142 0.46934,1.44597 0,0.0132 -0.0367,0.022 -0.0653,0.0156 z"
     id="path98" />
  <path
     style="fill:#5e5c64;fill-opacity:1;stroke-width:0.0156079"
     d="m 530.09697,643.23013 c -0.0296,-0.007 -0.0259,0.004 -0.72869,-2.14226 -1.30716,-3.9924 -2.35383,-7.18364 -2.55188,-7.78055 l -0.22268,-0.67114 -0.26424,-0.0112 c -0.22741,-0.01 -2.07841,-0.0408 -6.2889,-0.10588 -2.09804,-0.0324 -3.15141,-0.0464 -4.69799,-0.0623 -0.8756,-0.009 -1.68507,-0.0205 -1.79881,-0.0254 l -0.2068,-0.009 v -0.0449 c 0,-0.0436 0.002,-0.0447 0.0663,-0.0374 0.0365,0.004 1.37623,0.0145 2.97721,0.023 1.60098,0.009 4.3472,0.0232 6.1027,0.0326 1.7555,0.009 3.40891,0.0217 3.67424,0.0274 l 0.48241,0.0103 0.80956,2.47385 c 0.44526,1.36062 1.1996,3.66787 1.67631,5.12721 0.4767,1.45934 0.90495,2.76924 0.95166,2.91089 0.0467,0.14165 0.0849,0.26205 0.0849,0.26757 0,0.0147 -0.0352,0.0241 -0.0653,0.0173 z"
     id="path99" />
  <path
     style="fill:#5e5c64;fill-opacity:1;stroke-width:0.0156079"
     d="m 528.71864,643.22226 c -0.065,-0.18703 -3.0514,-9.30417 -3.0514,-9.31548 0,-0.009 0.0255,-0.0139 0.0578,-0.0112 l 0.0578,0.005 1.52569,4.65116 c 0.83914,2.55814 1.52602,4.65995 1.52641,4.67068 4.5e-4,0.0121 -0.0203,0.0195 -0.0544,0.0195 -0.0303,0 -0.0582,-0.009 -0.0619,-0.0195 z"
     id="path100" />
  <path
     style="fill:#5e5c64;fill-opacity:1;stroke-width:0.0156079"
     d="m 528.75387,643.22997 c -0.0203,-0.005 -0.0564,-0.0957 -0.14257,-0.36001 -0.0635,-0.19468 -0.39658,-1.21084 -0.74023,-2.25813 -0.60067,-1.83059 -1.53198,-4.67441 -1.9761,-6.0342 -0.11667,-0.3572 -0.21212,-0.65395 -0.21212,-0.65943 0,-0.005 0.0208,-0.01 0.0461,-0.01 h 0.0461 l 0.31957,0.97159 c 1.1352,3.45145 2.72536,8.31399 2.72536,8.33384 0,0.0141 -0.036,0.023 -0.0662,0.0163 z"
     id="path101" />
  <path
     style="fill:#5e5c64;fill-opacity:1;stroke-width:0.0156079"
     d="m 528.7545,643.23009 c -0.0284,-0.006 -0.0493,-0.0687 -1.22208,-3.64838 -1.52951,-4.66862 -1.84957,-5.64874 -1.84957,-5.66393 0,-0.006 0.0217,-0.009 0.0483,-0.007 l 0.0483,0.005 0.52993,1.61542 c 1.56319,4.76518 2.51059,7.664 2.51059,7.68181 0,0.0144 -0.0356,0.0235 -0.0655,0.0168 z"
     id="path102" />
  <path
     style="fill:#5e5c64;fill-opacity:1;stroke-width:0.0156079"
     d="m 506.73092,632.39885 c 0.0193,-0.004 0.0509,-0.004 0.0702,0 0.0193,0.004 0.004,0.007 -0.0351,0.007 -0.0386,0 -0.0544,-0.003 -0.0351,-0.007 z"
     id="path103" />
  <path
     style="fill:#5e5c64;fill-opacity:1;stroke-width:0.0156079"
     d="m 510.76947,632.4242 c -0.73825,-0.006 -2.97175,-0.0228 -4.96332,-0.0366 -1.99157,-0.0137 -4.58327,-0.0317 -5.75933,-0.04 -1.17605,-0.008 -3.04783,-0.019 -4.15951,-0.0237 -1.11167,-0.005 -2.08619,-0.0126 -2.1656,-0.0174 -0.12854,-0.008 -0.14437,-0.012 -0.14437,-0.0385 0,-0.0289 0.0238,-0.0298 0.82332,-0.0296 0.45282,9e-5 4.61955,0.0211 9.2594,0.0467 4.63985,0.0256 8.71527,0.0466 9.0565,0.0467 l 0.62042,1.5e-4 v 0.0546 0.0546 l -0.61262,-0.003 c -0.33693,-10e-4 -1.21663,-0.008 -1.95489,-0.0143 z"
     id="path104" />
  <path
     style="fill:#5e5c64;fill-opacity:1;stroke-width:0.0156079"
     d="m 490.78352,632.28971 c -0.23607,-0.002 -2.3291,-0.0145 -4.65116,-0.0277 -2.32207,-0.0133 -5.41244,-0.0311 -6.86749,-0.0397 -1.45505,-0.009 -5.20213,-0.0293 -8.32683,-0.046 -9.15681,-0.049 -8.8419,-0.0462 -8.8419,-0.0806 0,-0.0274 0.0172,-0.0292 0.28485,-0.0299 0.82535,-0.002 30.95861,0.15978 31.06758,0.16685 0.11343,0.007 0.12877,0.0119 0.12877,0.0382 0,0.0291 -0.0277,0.0297 -1.1823,0.0262 -0.65027,-0.002 -1.37545,-0.005 -1.61152,-0.007 z"
     id="path105" />
  <path
     style="fill:#5e5c64;fill-opacity:1;stroke-width:0.0156079"
     d="m 475.95599,633.75091 c -6.58748,-0.018 -15.87227,-0.0442 -19.70111,-0.0556 l -3.47667,-0.0104 v -0.79361 -0.7936 l 0.48775,5e-5 c 0.4903,6e-5 8.49276,0.0418 16.39223,0.0855 2.33494,0.0129 5.54822,0.0307 7.14062,0.0395 1.5924,0.009 3.9453,0.0229 5.22866,0.0312 1.28336,0.008 2.5002,0.0153 2.70407,0.0153 l 0.37069,9e-5 v 0.74918 0.74918 l -2.45434,-0.003 c -1.3499,-10e-4 -4.36125,-0.008 -6.6919,-0.0142 z"
     id="path106" />
  <path
     style="fill:#5e5c64;fill-opacity:1;stroke-width:0.0156079"
     d="m 453.65616,633.75605 c -0.76595,-0.004 -0.87795,-0.007 -0.87795,-0.0274 0,-0.0292 0.31332,-0.0295 7.81177,-0.007 3.03886,0.009 7.42859,0.0222 9.75496,0.0287 3.38292,0.009 2.22362,0.0115 -5.79055,0.0106 -5.51116,-6.3e-4 -10.41536,-0.003 -10.89823,-0.005 z"
     id="path107" />
  <path
     style="fill:#5e5c64;fill-opacity:1;stroke-width:0.0156079"
     d="m 428.08647,633.73568 c -1.67824,-0.006 -3.47803,-0.0112 -3.99953,-0.0125 l -0.94819,-0.002 v -0.0624 -0.0624 h 1.08866 c 0.59876,0 2.58467,0.007 4.41314,0.0156 5.0414,0.0237 10.6697,0.0443 17.02825,0.0625 6.45272,0.0184 7.12689,0.0238 7.11436,0.0564 -0.007,0.0184 -1.62851,0.0211 -10.82682,0.0184 -5.95018,-0.002 -12.19163,-0.008 -13.86987,-0.0133 z"
     id="path108" />
  <path
     style="fill:#5e5c64;fill-opacity:1;stroke-width:0.0156079"
     d="m 451.20181,632.07106 c -0.29616,-0.002 -3.48135,-0.0179 -7.0782,-0.0353 -3.59684,-0.0174 -7.90931,-0.0386 -9.58326,-0.0472 -1.67395,-0.009 -4.54659,-0.0225 -6.38365,-0.031 -1.83705,-0.009 -4.00206,-0.0199 -4.81114,-0.0254 l -1.47105,-0.01 v -0.0371 -0.0371 l 0.43312,-7e-5 c 0.73091,-1.1e-4 29.36782,0.15411 30.66958,0.16516 1.18101,0.01 1.22132,0.0113 1.22132,0.0397 0,0.0285 -0.0355,0.0292 -1.22912,0.0256 -0.67602,-0.002 -1.47144,-0.005 -1.7676,-0.007 z"
     id="path109" />
  <path
     style="fill:#5e5c64;fill-opacity:1;stroke-width:0.0156079"
     d="m 419.21336,633.704 c -2.51664,-0.0123 -7.16513,-0.0382 -10.00078,-0.0558 l -1.66615,-0.0103 v -0.0684 -0.0684 l 1.00281,0.009 c 1.5609,0.014 5.78363,0.0368 10.15686,0.0549 2.19331,0.009 4.08791,0.0205 4.21024,0.0254 l 0.22241,0.009 v 0.0608 0.0608 l -0.76088,-0.003 c -0.41849,-10e-4 -1.84252,-0.008 -3.16451,-0.0143 z"
     id="path110" />
  <path
     style="fill:#5e5c64;fill-opacity:1;stroke-width:0.0156079"
     d="m 426.65834,633.72573 c -3.49444,-0.008 -17.13318,-0.0762 -18.37443,-0.0925 l -0.73748,-0.01 v -0.0612 -0.0612 l 0.26144,0.009 c 0.29058,0.01 4.0666,0.0314 9.4623,0.0546 1.95295,0.008 3.92657,0.019 4.38583,0.0235 0.45926,0.005 1.82886,0.012 3.04355,0.0166 1.21468,0.005 3.81692,0.015 5.78274,0.0232 1.96581,0.008 4.88235,0.0196 6.48119,0.0254 l 2.90697,0.0105 v 0.0365 0.0365 l -5.87248,-0.004 c -3.22986,-0.002 -6.5327,-0.005 -7.33963,-0.007 z"
     id="path111" />
  <path
     style="fill:#5e5c64;fill-opacity:1;stroke-width:0.0156079"
     d="m 426.65054,633.72573 c -3.49701,-0.008 -17.12838,-0.0762 -18.36663,-0.0925 l -0.73748,-0.01 v -0.0612 -0.0612 l 0.26144,0.009 c 0.28797,0.01 4.01773,0.031 9.4545,0.0546 1.94006,0.008 3.92071,0.0189 4.40144,0.0234 0.48072,0.005 1.85383,0.012 3.05135,0.0166 1.19751,0.005 3.79272,0.0151 5.76713,0.0232 1.9744,0.008 4.89445,0.0195 6.48899,0.0253 l 2.89917,0.0105 v 0.0365 0.0365 l -5.88028,-0.004 c -3.23416,-0.002 -6.53699,-0.005 -7.33963,-0.007 z"
     id="path112" />
  <path
     style="fill:#5e5c64;fill-opacity:1;stroke-width:0.0156079"
     d="m 419.9817,631.91475 c 0.0277,-0.003 0.0769,-0.004 0.10926,-1.2e-4 0.0324,0.003 0.01,0.006 -0.0504,0.006 -0.0601,7e-5 -0.0866,-0.003 -0.0589,-0.006 z"
     id="path113" />
  <path
     style="fill:#5e5c64;fill-opacity:1"
     d="m 392.77353,633.43218 c 0.1925,0 0.38504,-0.004 0.57749,0 0.0368,8.4e-4 0.0726,0.0128 0.10926,0.0156 0.0819,0.006 0.29014,-0.0229 0.35898,0 0.0624,0.0208 -0.003,0.015 0.078,0.0312 0.0628,0.0126 0.14244,-0.0202 0.2029,0 0.0542,0.0181 0.0844,0.0406 0.14047,0.0468 0.14143,0.0157 0.29488,0 0.43703,0 0.0372,0 0.0887,-0.009 0.12486,0 0.0226,0.006 0.0393,0.0289 0.0624,0.0312 0.0582,0.006 0.12633,0 0.1873,0"
     id="path114" />
  <rect
     style="fill:#5e5c64;fill-opacity:1"
     id="rect115"
     width="4.3078008"
     height="0.70235163"
     x="392.75793"
     y="633.30731" />
  <rect
     style="fill:#5e5c64;fill-opacity:1"
     id="rect116"
     width="10.987982"
     height="1.311066"
     x="396.00436"
     y="633.15125" />
  <rect
     style="fill:#5e5c64;fill-opacity:1"
     id="rect117"
     width="3.3869205"
     height="0.63992506"
     x="405.1506"
     y="633.6507" />
  <rect
     style="fill:#5e5c64;fill-opacity:1"
     id="rect118"
     width="1.2330264"
     height="0.20290308"
     x="405.72812"
     y="633.13562" />
  <rect
     style="fill:#5e5c64;fill-opacity:1"
     id="rect119"
     width="1.6232246"
     height="1.5139691"
     x="406.11832"
     y="632.99518" />
  <rect
     style="fill:#5e5c64;fill-opacity:1"
     id="rect120"
     width="60.481625"
     height="4.638793"
     x="360.63373"
     y="632.37012" />
  <rect
     style="fill:#5e5c64;fill-opacity:1"
     id="rect121"
     width="6.6159697"
     height="0.53231937"
     x="421.29279"
     y="637.16095" />
  <rect
     style="fill:#5e5c64;fill-opacity:1"
     id="rect122"
     width="86.108978"
     height="3.14326"
     x="409.48035"
     y="632.82635"
     ry="1.2547733" />
  <rect
     style="fill:#5e5c64;fill-opacity:1"
     id="rect123"
     width="3.2446246"
     height="10.64637"
     x="523.54877"
     y="633.73889"
     ry="1.4828976"
     rx="0.50697082" />
  <rect
     style="fill:#5e5c64;fill-opacity:1"
     id="rect124"
     width="1.9518378"
     height="8.4157162"
     x="526.18506"
     y="636.37518"
     rx="0.50697082"
     ry="1.4828976" />
  <rect
     style="fill:#5e5c64;fill-opacity:1"
     id="rect125"
     width="2.7122941"
     height="5.2978454"
     x="526.6413"
     y="640.96326"
     rx="0.50697082"
     ry="1.4828976" />
  <path
     style="fill:#5e5c64;fill-opacity:1;stroke-width:0.0253485"
     d="m 511.92649,649.02404 v -16.033 l 7.38081,0.006 7.38082,0.006 0.5808,1.7744 c 0.31943,0.97592 0.5919,1.78581 0.60547,1.79975 0.0162,0.0167 0.0203,0.0123 0.0119,-0.0127 -0.15693,-0.46506 -1.1562,-3.53362 -1.1562,-3.55046 0,-0.013 0.0205,-0.0237 0.0456,-0.0237 0.0382,0 0.31268,0.81707 1.6966,5.0507 0.90805,2.77788 1.65873,5.08206 1.66817,5.1204 0.0129,0.0525 0.008,0.0697 -0.0205,0.0697 -0.0483,0 -0.0416,0.019 -0.67476,-1.91382 -0.29228,-0.89226 -0.71749,-2.19019 -0.9449,-2.88427 -0.22741,-0.69408 -0.41727,-1.25059 -0.4219,-1.23669 -0.005,0.0139 1.98224,6.10269 4.41528,13.53066 4.64347,14.17631 4.68001,14.28807 4.68001,14.31334 0,0.009 -0.2538,0.0157 -0.56401,0.0154 l -0.564,-4.7e-4 -0.84082,-2.5534 c -2.3997,-7.2874 -4.29859,-13.05677 -5.03043,-15.28391 -0.44997,-1.36934 -0.82107,-2.48676 -0.82467,-2.48316 -0.004,0.004 -0.008,0.10306 -0.0107,0.22101 l -0.004,0.21446 2.3502,7.16097 c 1.29261,3.93853 2.75265,8.38719 3.24453,9.88593 0.49189,1.49873 0.90222,2.75063 0.91184,2.782 l 0.0175,0.057 h -11.96622 -11.96622 z"
     id="path125" />
  <path
     style="fill:#5e5c64;fill-opacity:1;stroke-width:0.0253485"
     d="m 535.68523,664.42966 c -0.3668,-1.11359 -6.16602,-18.79362 -6.25048,-19.05577 -0.0618,-0.19182 -0.0785,-0.28212 -0.0687,-0.37122 0.0118,-0.10781 0.067,0.047 0.6549,1.83777 0.91873,2.79857 3.0299,9.21275 4.61985,14.03608 0.75176,2.28056 1.36683,4.15414 1.36683,4.1635 0,0.009 -0.026,0.017 -0.0579,0.017 -0.0531,0 -0.0748,-0.0513 -0.26451,-0.62737 z"
     id="path126" />
  <path
     style="fill:#5e5c64;fill-opacity:1;stroke-width:0.0253485"
     d="m 535.87105,664.92395 c -0.0395,-0.0993 -6.02243,-18.32339 -6.33503,-19.29657 -0.13665,-0.42541 -0.19885,-0.67942 -0.14484,-0.5915 0.0143,0.0232 0.10617,0.27988 0.20425,0.57034 0.17609,0.52151 6.34192,19.25803 6.37378,19.36843 0.0305,0.10573 -0.0531,0.0625 -0.0982,-0.0507 z"
     id="path127" />
  <path
     style="fill:#5e5c64;fill-opacity:1;stroke-width:0.0253485"
     d=""
     id="path128" />
  <path
     style="fill:#5e5c64;fill-opacity:1;stroke-width:0.0253485"
     d="m 537.5968,666.20406 c -0.0152,-0.0269 0.0266,0.10066 -3.91829,-11.9455 -1.96552,-6.00191 -3.58175,-10.93352 -3.59164,-10.95914 -0.0147,-0.0383 -0.007,-0.0451 0.0421,-0.038 0.0564,0.008 0.27911,0.67779 3.67819,11.06054 4.40556,13.45707 3.90269,11.90114 3.84638,11.90114 -0.0253,0 -0.0508,-0.009 -0.0567,-0.019 z"
     id="path129" />
  <path
     style="fill:#5e5c64;fill-opacity:1;stroke-width:0.0253485"
     d="m 537.35441,665.43093 c -0.13991,-0.42174 -1.44043,-4.38847 -2.89006,-8.81496 -1.44962,-4.42649 -3.02419,-9.23365 -3.49903,-10.68258 -0.47485,-1.44893 -0.85799,-2.63979 -0.85142,-2.64636 0.0272,-0.0272 0.14337,0.30179 0.74557,2.11221 0.71411,2.14684 0.93413,2.81665 3.54703,10.79848 2.78836,8.51783 3.24876,9.93174 3.24876,9.97707 0,0.0126 -0.0105,0.0229 -0.0232,0.0229 -0.0128,0 -0.13771,-0.34506 -0.27761,-0.76679 z"
     id="path130" />
  <path
     style="fill:#5e5c64;fill-opacity:1;stroke-width:0.0253485"
     d="m 543.55358,688.20659 c -0.0585,-0.10223 -7.64737,-23.05321 -7.64737,-23.12789 0,-0.0119 0.0259,-0.0217 0.0576,-0.0217 0.052,0 0.0705,0.0393 0.18856,0.39924 0.072,0.21959 0.90628,2.74905 1.85391,5.62104 2.95903,8.96798 3.46899,10.52053 4.60018,14.00507 0.7905,2.43508 1.00568,3.10395 1.00568,3.12613 0,0.0232 -0.045,0.0217 -0.0586,-0.002 z"
     id="path131" />
  <path
     style="fill:#5e5c64;fill-opacity:1;stroke-width:0.0253485"
     d="m 522.26869,672.19259 v -16.03301 l 5.33802,0.006 5.33802,0.006 0.33825,1.02662 c 0.18604,0.56463 1.07576,3.27376 1.97716,6.02027 2.67624,8.1544 3.78194,11.50469 6.6518,20.15514 0.87936,2.65059 1.59883,4.82645 1.59883,4.83523 0,0.009 -4.77946,0.016 -10.62104,0.016 h -10.62104 z"
     id="path132" />
  <path
     style="fill:#5e5c64;fill-opacity:1;stroke-width:0.0253485"
     d="m 544.79518,688.20659 c -0.006,-0.0105 -0.36169,-1.09125 -0.78987,-2.40177 -0.42818,-1.31052 -2.04368,-6.24857 -3.58999,-10.97344 -1.54632,-4.72487 -2.80477,-8.5974 -2.79655,-8.60562 0.008,-0.008 0.0262,0.005 0.0399,0.0297 0.0137,0.0246 0.0333,0.0396 0.0434,0.0333 0.0101,-0.006 1.63065,4.91272 3.60124,10.93102 1.97059,6.0183 3.58805,10.95663 3.59437,10.97406 0.0123,0.0339 -0.0828,0.0457 -0.10251,0.0127 z"
     id="path133" />
  <path
     style="fill:#5e5c64;fill-opacity:1;stroke-width:0.0253485"
     d="m 519.58175,698.65808 v -0.74623 l 0.10773,-0.0127 c 0.0593,-0.007 1.03169,-0.0368 2.16096,-0.0663 7.67648,-0.20049 14.84532,-0.52692 18.0916,-0.8238 2.58334,-0.23625 5.20225,-0.69992 5.87704,-1.04051 0.15937,-0.0804 0.18406,-0.11619 0.16364,-0.23699 l -0.0169,-0.10036 -0.0987,0.0988 c -0.78016,0.78016 -5.7501,1.32334 -15.75295,1.72169 -2.62581,0.10457 -6.03413,0.21237 -8.80862,0.2786 -0.59252,0.0141 -1.22275,0.032 -1.40051,0.0397 l -0.32319,0.014 v -9.92489 -9.92489 h 10.26461 10.26461 l 0.43136,1.31179 c 0.66064,2.00903 3.79369,11.40862 4.30076,12.90287 0.24728,0.72871 0.45432,1.32021 0.46009,1.31444 0.0207,-0.0207 -1.31279,-4.21144 -2.67091,-8.39348 -0.53855,-1.65837 -2.21207,-6.772 -2.28754,-6.98986 l -0.0505,-0.14576 h 0.55421 0.55421 l 0.0768,0.23448 c 2.47109,7.54284 5.37763,16.45719 6.29955,19.32073 l 0.61655,1.91501 h -14.40692 -14.40691 z"
     id="path134" />
  <path
     style="fill:#5e5c64;fill-opacity:1;stroke-width:0.0253485"
     d="m 544.75285,696.2378 c 0.54271,-0.14149 0.95147,-0.30948 1.11,-0.45618 0.07,-0.0648 0.0859,-0.0706 0.0991,-0.0362 0.0522,0.13607 -0.28247,0.29172 -1.03165,0.47977 -0.18821,0.0472 -0.36502,0.085 -0.3929,0.0839 -0.0279,-10e-4 0.0691,-0.0332 0.21546,-0.0713 z"
     id="path135" />
  <path
     style="fill:#5e5c64;fill-opacity:1;stroke-width:0.0253485"
     d="m 545.52398,695.99538 c 0.11044,-0.0482 0.2438,-0.12222 0.29636,-0.16446 0.10791,-0.0867 0.12389,-0.0919 0.12389,-0.0405 0,0.0532 -0.11683,0.12766 -0.33821,0.2156 -0.26702,0.10607 -0.33052,0.0978 -0.082,-0.0106 z"
     id="path136" />
  <path
     style="fill:#5e5c64;fill-opacity:1;stroke-width:0.0253485"
     d="m 519.58175,699.45501 c 0,-0.0169 4.82524,-0.0254 14.42503,-0.0254 h 14.42503 l -0.0178,-0.057 c -0.23358,-0.74894 -2.1098,-6.53526 -3.15632,-9.73421 -0.24979,-0.76351 -0.45415,-1.39374 -0.45415,-1.4005 0,-0.007 0.0223,-0.0123 0.0496,-0.0123 0.0557,0 -0.0782,-0.39981 2.35677,7.03887 0.75382,2.30293 1.37059,4.19362 1.37059,4.20152 0,0.008 -6.52471,0.0144 -14.49936,0.0144 -9.64935,0 -14.49937,-0.008 -14.49937,-0.0253 z"
     id="path137" />
  <path
     style="fill:#5e5c64;fill-opacity:1;stroke-width:0.0253485"
     d="m 530.57034,699.45459 c -0.0837,-0.009 3.90507,-0.0183 8.86382,-0.0207 l 9.0159,-0.004 -0.0853,-0.25982 c -0.0469,-0.14291 -0.30942,-0.95564 -0.58331,-1.80609 -0.2739,-0.85044 -0.8746,-2.70405 -1.3349,-4.11914 -0.46029,-1.41508 -1.01256,-3.11294 -1.22726,-3.77301 -0.21471,-0.66008 -0.39037,-1.20476 -0.39037,-1.2104 0,-0.006 0.0106,-0.0103 0.0235,-0.0103 0.0313,0 0.0894,0.15779 0.37317,1.01394 0.85285,2.57316 3.33392,10.16933 3.32411,10.17726 -0.0181,0.0147 -17.84464,0.027 -17.97936,0.0124 z"
     id="path138" />
  <path
     style="fill:#5e5c64;fill-opacity:1;stroke-width:0.0253485"
     d="m 519.58175,698.65808 v -0.74623 l 0.10773,-0.013 c 0.0593,-0.007 0.62104,-0.0254 1.24842,-0.0406 7.01405,-0.16971 14.63712,-0.49807 18.2763,-0.78724 2.88613,-0.22934 5.85759,-0.72535 6.60488,-1.10254 0.15681,-0.0791 0.18525,-0.11836 0.16481,-0.22728 l -0.0168,-0.0895 -0.11917,0.0992 c -0.38582,0.32111 -1.2631,0.55886 -2.95821,0.8017 -3.59571,0.51512 -11.18946,0.92941 -21.58428,1.17756 -0.59252,0.0141 -1.22275,0.032 -1.40051,0.0397 l -0.32319,0.014 v -9.92489 -9.92489 h 10.26501 10.26502 l 0.46953,1.42586 c 0.51465,1.5629 4.07509,12.23725 4.45168,13.34632 0.12906,0.38009 0.23944,0.68628 0.24529,0.68043 0.034,-0.034 -3.01574,-9.50489 -4.74525,-14.73651 l -0.23673,-0.7161 h 0.55317 0.55318 l 0.1022,0.31052 c 0.3415,1.03756 3.89252,11.90719 4.91695,15.0507 0.29305,0.89924 0.82492,2.54183 1.18193,3.65019 0.35701,1.10837 0.6821,2.11502 0.72241,2.23701 l 0.0733,0.2218 H 533.9906 519.58175 Z"
     id="path139" />
  <path
     style="fill:#5e5c64;fill-opacity:1;stroke-width:0.0253485"
     d=""
     id="path140" />
  <path
     style="fill:#5e5c64;fill-opacity:1;stroke-width:0.0253485"
     d="m 513.49335,697.91678 c 0.0183,-0.007 0.0402,-0.006 0.0486,0.002 0.008,0.008 -0.007,0.0144 -0.0333,0.0133 -0.0295,-0.001 -0.0355,-0.007 -0.0153,-0.0153 z"
     id="path141" />
  <path
     style="fill:#5e5c64;fill-opacity:1;stroke-width:0.0253485"
     d="m 491.05196,698.23658 c 0.37643,-0.012 2.51521,-0.0399 4.75286,-0.0619 25.15079,-0.24733 40.36499,-0.74175 46.44822,-1.50942 0.53157,-0.0671 0.71589,-0.079 0.59596,-0.0386 -0.0892,0.0301 -1.4608,0.20922 -2.24063,0.29266 -3.42318,0.3663 -11.77447,0.73119 -22.91509,1.00122 -5.31721,0.12888 -10.06412,0.19506 -20.93789,0.29189 -4.6139,0.0411 -6.48173,0.049 -5.70343,0.0241 z"
     id="path142" />
  <rect
     style="fill:#5e5c64;fill-opacity:1"
     id="rect142"
     width="143.38461"
     height="11.692307"
     x="276.61539"
     y="687.38464"
     rx="0.50697082"
     ry="1.4828976" />
  <rect
     style="fill:#5e5c64;fill-opacity:1"
     id="rect143"
     width="127.69232"
     height="4.3077159"
     x="418.76923"
     y="694.15381"
     rx="0.50697082"
     ry="1.3077041" />
  <rect
     style="fill:#5e5c64;fill-opacity:1"
     id="rect144"
     width="42.76923"
     height="1.3846154"
     x="418"
     y="697.84613"
     rx="0.50697082"
     ry="1.3077041" />
  <rect
     style="fill:#5e5c64;fill-opacity:1"
     id="rect145"
     width="41.23077"
     height="8.7692308"
     x="239.07692"
     y="690.30768"
     rx="0.50697082"
     ry="1.3077041" />
  <rect
     style="fill:#5e5c64;fill-opacity:1"
     id="rect146"
     width="78.615364"
     height="7.6922984"
     x="286.76923"
     y="631.38458"
     rx="0"
     ry="1.3077041" />
  <rect
     style="fill:#5e5c64;fill-opacity:1"
     id="rect147"
     width="35.53846"
     height="4.7692308"
     x="296.61539"
     y="631.38464"
     ry="1.3077041" />
  <rect
     style="fill:#5e5c64;fill-opacity:1"
     id="rect148"
     width="2.7692308"
     height="1.3846154"
     x="296.76923"
     y="633.23077"
     ry="0.69230771" />
  <path
     style="fill:#5e5c64;fill-opacity:1;stroke-width:0.035868"
     d="m 254.17862,663.38004 c 0,-0.0207 24.91238,-32.15075 24.9963,-32.23829 0.0554,-0.0578 0.13885,-0.0626 0.9461,-0.0538 l 0.88531,0.01 -10.69107,13.84505 c -5.8801,7.61478 -11.49111,14.88209 -12.46893,16.14957 -0.97782,1.26749 -1.80153,2.30452 -1.83047,2.30452 -0.0374,0 -0.0422,-0.013 -0.0167,-0.0448 0.0198,-0.0247 0.47675,-0.61783 1.0155,-1.31815 0.53876,-0.70033 4.05447,-5.26005 7.8127,-10.13272 10.82935,-14.0406 15.27547,-19.81742 15.63591,-20.31564 0.0636,-0.088 0.11417,-0.20232 0.11417,-0.25835 0,-0.0856 -0.0199,-0.10608 -0.1345,-0.13789 -0.17767,-0.0494 -0.49606,-0.048 -0.59418,0.003 -0.33626,0.17324 -0.79751,0.65796 -2.02535,2.12836 -2.18061,2.6114 -8.11868,10.19166 -20.11182,25.6738 -3.03888,3.92294 -3.533,4.53638 -3.533,4.38615 z"
     id="path148" />
  <path
     style="fill:#5e5c64;fill-opacity:1;stroke-width:0.0334672"
     d="m 278.19619,648.33501 6e-5,-13.52912 1.0078,-1.30522 c 0.55428,-0.71787 1.27279,-1.64953 1.59669,-2.07036 0.32389,-0.42083 0.60465,-0.77119 0.62391,-0.77858 0.0192,-0.007 4.11622,0.15613 9.10438,0.36338 l 9.06936,0.37682 20.917,0.008 c 11.50436,0.005 22.28372,0.008 23.95415,0.009 l 3.03715,1.1e-4 v 15.22758 15.22757 h -34.65528 -34.65529 z"
     id="path149" />
  <path
     style="fill:#5e5c64;fill-opacity:1;stroke-width:0.0334672"
     d="m 297.92503,631.27873 -2.07496,-0.0873 0.93708,-0.007 c 0.51539,-0.004 8.35425,0.0355 17.41968,0.0874 l 16.48259,0.0944 -15.34471,-1.5e-4 -15.34471,-5e-5 z"
     id="path150" />
  <path
     style="fill:#5e5c64;fill-opacity:1;stroke-width:0.0334672"
     d="m 298.24297,631.27845 c -0.88937,-0.039 -1.12144,-0.0567 -0.85341,-0.0651 0.33938,-0.0107 10.72911,0.0385 19.81258,0.0938 2.7405,0.0167 0.77952,0.0234 -6.96118,0.024 -9.35606,7.1e-4 -10.93744,-0.006 -11.99799,-0.0527 z"
     id="path151" />
  <path
     style="fill:#5e5c64;fill-opacity:1;stroke-width:0.0334672"
     d="m 298.24297,631.27845 c -0.88937,-0.039 -1.12144,-0.0567 -0.85341,-0.0651 0.33938,-0.0107 10.72911,0.0385 19.81258,0.0938 2.7405,0.0167 0.77952,0.0234 -6.96118,0.024 -9.35606,7.1e-4 -10.93744,-0.006 -11.99799,-0.0527 z"
     id="path152" />
  <path
     style="fill:#5e5c64;fill-opacity:1;stroke-width:0.0334672"
     d="m 278.19612,648.33338 v -13.53074 l 1.57464,-2.03987 c 0.86606,-1.12193 1.59402,-2.05947 1.61769,-2.08341 0.0353,-0.0357 1.15904,0.002 6.26505,0.2096 3.4221,0.13922 7.49459,0.30907 9.04998,0.37743 l 2.82798,0.1243 20.95047,0.009 c 11.52276,0.005 22.31718,0.009 23.98761,0.009 l 3.03715,3e-5 v 15.22758 15.22757 h -34.65528 -34.65529 z"
     id="path153" />
  <path
     style="fill:#5e5c64;fill-opacity:1;stroke-width:0.00552578"
     d="m 265.01471,651.84699 c 0.005,-0.005 1.10074,-1.42454 2.43581,-3.15384 1.33506,-1.72929 2.43198,-3.15009 2.43759,-3.15733 0.01,-0.0128 0.0102,0.0737 0.0116,3.15384 l 10e-4,3.167 h -2.4474 c -2.33037,0 -2.44699,-4.6e-4 -2.43898,-0.01 z"
     id="path154" />
  <path
     style="fill:#5e5c64;fill-opacity:1;stroke-width:0.00552578"
     d=""
     id="path155" />
  <path
     style="fill:#5e5c64;fill-opacity:1;stroke-width:0.00552578"
     d="m 264.98925,651.84475 c 0.006,-0.007 1.11145,-1.43778 2.45566,-3.17923 1.34421,-1.74144 2.44613,-3.16863 2.44872,-3.17152 0.003,-0.003 0.005,-3.9e-4 0.005,0.006 0,0.0176 -4.89319,6.35284 -4.9087,6.35531 l -0.012,0.002 z"
     id="path156" />
  <path
     style="fill:#5e5c64;fill-opacity:1;stroke-width:0.00552578"
     d=""
     id="path157" />
  <path
     style="fill:#5e5c64;fill-opacity:1;stroke-width:0.00390625"
     d="m 264.71289,652.01581 c 0,-9.7e-4 0.6272,-0.8144 1.39377,-1.80761 0.76658,-0.99322 1.62367,-2.10381 1.90466,-2.46797 0.46137,-0.59793 0.51204,-0.66223 0.52271,-0.66336 0.0116,-10e-4 0.0112,-5.2e-4 -0.0209,0.0413 -0.018,0.0234 -0.87544,1.13534 -1.90548,2.47098 -1.70918,2.21629 -1.87376,2.42845 -1.88379,2.42845 -0.006,0 -0.011,-8e-4 -0.011,-0.002 z"
     id="path158" />
  <path
     style="fill:#5e5c64;fill-opacity:1;stroke-width:0.00390625"
     d=""
     id="path159" />
  <path
     style="fill:#5e5c64;fill-opacity:1;stroke-width:0.00390625"
     d="m 263.37598,651.72754 c 0.82743,-1.06521 2.20541,-2.83816 2.85236,-3.66992 l 0.76337,-0.98145 h 0.76326 0.76326 l -0.0251,0.0322 c -0.0138,0.0177 -0.53651,0.69492 -1.16156,1.50488 -0.62505,0.80996 -1.47191,1.90728 -1.8819,2.43848 l -0.74545,0.96582 h -0.77677 -0.77677 z"
     id="path160" />
  <path
     style="fill:#5e5c64;fill-opacity:1;stroke-width:0.00390625"
     d="m 263.12946,652.01277 c 0.004,-0.006 0.59852,-0.77213 1.65428,-2.13058 2.12516,-2.73445 2.18068,-2.80559 2.18989,-2.80581 0.005,-1.1e-4 0.009,7.2e-4 0.009,0.002 0,10e-4 -0.42066,0.54298 -0.9348,1.2041 -0.78126,1.00461 -2.12605,2.73496 -2.74886,3.537 -0.1255,0.1616 -0.15564,0.19824 -0.16311,0.19824 -0.006,0 -0.008,-0.002 -0.006,-0.005 z"
     id="path161" />
  <path
     style="fill:#5e5c64;fill-opacity:1;stroke-width:0.00390625"
     d="m 262.95508,652.01603 c 0,-0.002 3.81689,-4.92545 3.82613,-4.93531 0.003,-0.003 0.009,-0.005 0.0136,-0.004 0.008,10e-4 -0.2591,0.3468 -1.90514,2.47006 -1.60963,2.0763 -1.91552,2.46895 -1.92425,2.46999 -0.006,6.8e-4 -0.0104,3.1e-4 -0.0104,-8.3e-4 z"
     id="path162" />
  <path
     style="fill:#5e5c64;fill-opacity:1;stroke-width:0.00390625"
     d="m 265.74655,650.89941 c 0.002,-0.003 0.0286,-0.0383 0.0601,-0.0791 0.0771,-0.10002 0.53133,-0.68832 0.82037,-1.0625 0.18792,-0.24328 1.01282,-1.31172 1.09324,-1.41601 0.029,-0.0376 0.0908,-0.11758 0.13728,-0.17774 0.10065,-0.13018 0.1788,-0.23138 1.03841,-1.34472 l 0.66126,-0.85645 h 0.74973 0.74972 l 9.8e-4,2.4707 9.8e-4,2.47071 h -2.65745 c -2.12489,0 -2.65689,-9.8e-4 -2.65459,-0.005 z"
     id="path163" />
  <path
     style="fill:#5e5c64;fill-opacity:1;stroke-width:0.00390625"
     d="m 265.74414,650.90247 c 0,-10e-4 0.0418,-0.0559 0.093,-0.12207 0.0511,-0.0661 0.20087,-0.25999 0.33272,-0.43079 0.13185,-0.1708 0.31643,-0.40986 0.41016,-0.53125 0.0937,-0.12139 0.24779,-0.3209 0.34234,-0.44336 0.0945,-0.12246 0.25538,-0.33076 0.3574,-0.46289 0.10202,-0.13213 0.28728,-0.37207 0.41168,-0.5332 0.12441,-0.16114 0.3002,-0.38877 0.39064,-0.50586 0.0904,-0.11709 0.2662,-0.34473 0.39057,-0.50586 0.12436,-0.16114 0.26146,-0.33867 0.30465,-0.39453 0.076,-0.0983 0.18646,-0.24132 0.50979,-0.66016 0.0846,-0.10957 0.17996,-0.23306 0.21193,-0.27441 l 0.0581,-0.0752 h 0.74975 0.74974 l 9.8e-4,2.4707 9.8e-4,2.47071 h -2.65722 c -1.46148,0 -2.65723,-8.2e-4 -2.65723,-0.002 z"
     id="path164" />
  <path
     style="fill:#5e5c64;fill-opacity:1;stroke-width:0.00390625"
     d="m 265.74414,650.90232 c 0,-10e-4 0.0357,-0.0481 0.0793,-0.10449 0.0952,-0.12313 0.18281,-0.23655 0.95392,-1.23533 0.32842,-0.42539 0.71863,-0.93076 0.86713,-1.12305 0.28767,-0.37248 0.78151,-1.01197 0.96832,-1.2539 0.0622,-0.0806 0.16193,-0.20977 0.22159,-0.28711 0.0597,-0.0774 0.24629,-0.31905 0.41471,-0.53711 l 0.30622,-0.39649 0.75065,-9.8e-4 0.75066,-9.9e-4 9.8e-4,2.47071 9.8e-4,2.47072 h -2.65722 c -1.46148,0 -2.65723,-8.9e-4 -2.65723,-0.002 z"
     id="path165" />
  <path
     style="fill:#5e5c64;fill-opacity:1;stroke-width:0.00390625"
     d="m 265.74414,650.9023 c 0,-10e-4 0.18493,-0.24148 0.41095,-0.53418 0.22602,-0.2927 0.51748,-0.67017 0.64769,-0.83882 0.52088,-0.67467 0.79028,-1.02357 0.94708,-1.22657 0.0904,-0.11709 0.34225,-0.44316 0.55956,-0.72461 0.21732,-0.28144 0.5865,-0.75957 0.82041,-1.0625 l 0.42528,-0.55078 0.75076,-9.8e-4 0.75076,-9.9e-4 9.8e-4,2.47071 9.8e-4,2.47072 h -2.65722 c -1.46148,0 -2.65723,-9e-4 -2.65723,-0.002 z"
     id="path166" />
  <path
     style="fill:#5e5c64;fill-opacity:1;stroke-width:0.00390625"
     d="m 265.74414,650.90229 c 0,-0.002 0.0555,-0.074 0.29687,-0.38667 0.32523,-0.42112 0.41178,-0.53319 0.59426,-0.76953 0.51364,-0.6652 1.34632,-1.74366 1.47483,-1.91015 0.0779,-0.10098 0.4349,-0.56328 0.79325,-1.02735 l 0.65155,-0.84375 0.75087,-9.8e-4 0.75086,-9.9e-4 9.8e-4,2.47071 9.8e-4,2.47072 h -2.65722 c -1.46148,0 -2.65723,-9.1e-4 -2.65723,-0.002 z"
     id="path167" />
  <path
     style="fill:#5e5c64;fill-opacity:1;stroke-width:0.00390625"
     d="m 265.74414,650.90219 c 0,-10e-4 0.026,-0.0359 0.0579,-0.0772 0.18457,-0.23923 0.66672,-0.86373 1.13159,-1.46567 0.19825,-0.2567 0.79027,-1.02343 0.8988,-1.16406 0.11239,-0.14561 0.67901,-0.87942 0.90337,-1.16992 0.11698,-0.15146 0.27646,-0.35801 0.3544,-0.45898 0.0779,-0.10098 0.21436,-0.27764 0.30316,-0.39258 l 0.16145,-0.20899 0.75092,-9.8e-4 0.75091,-9.9e-4 9.8e-4,2.47071 9.8e-4,2.47072 h -2.65722 c -1.46148,0 -2.65723,-9.5e-4 -2.65723,-0.002 z"
     id="path168" />
  <path
     style="fill:#5e5c64;fill-opacity:1;stroke-width:0.00390625"
     d="m 265.74479,650.90067 c 7.2e-4,-0.002 0.12255,-0.16063 0.27074,-0.35253 0.14819,-0.19191 0.35833,-0.46406 0.46697,-0.60478 0.6399,-0.82888 0.86977,-1.12658 1.20496,-1.56055 0.68476,-0.88657 1.36138,-1.76311 1.61076,-2.0867 l 0.25647,-0.33279 0.75097,-2.1e-4 0.75097,-2.2e-4 9.8e-4,2.4707 9.8e-4,2.47071 h -2.65755 c -1.63089,0 -2.65705,-0.001 -2.65625,-0.004 z"
     id="path169" />
  <path
     style="fill:#5e5c64;fill-opacity:1;stroke-width:0.00390625"
     d="m 265.74414,650.90201 c 0,-10e-4 0.0199,-0.0281 0.0442,-0.0596 0.39555,-0.51265 0.50661,-0.65652 0.5613,-0.72721 0.0599,-0.0774 0.46234,-0.59869 0.66797,-0.86523 0.0481,-0.0623 0.17022,-0.22051 0.27146,-0.35156 0.20378,-0.2638 0.8617,-1.1158 0.97281,-1.25977 0.039,-0.0505 0.26289,-0.34053 0.49762,-0.64453 0.23473,-0.304 0.50967,-0.66032 0.61098,-0.79182 l 0.18421,-0.23908 0.75097,-1.7e-4 0.75097,-1.8e-4 9.8e-4,2.4707 9.8e-4,2.47071 h -2.65722 c -1.46148,0 -2.65723,-10e-4 -2.65723,-0.002 z"
     id="path170" />
  <path
     style="fill:#5e5c64;fill-opacity:1;stroke-width:0.00390625"
     d="m 265.74414,650.90196 c 0,-10e-4 0.0137,-0.0202 0.0305,-0.042 0.0452,-0.0587 0.8556,-1.10853 1.11009,-1.4381 0.12112,-0.15683 0.29689,-0.38447 0.39061,-0.50585 0.0937,-0.12139 0.317,-0.41055 0.49616,-0.64258 0.17917,-0.23203 0.40853,-0.5291 0.50971,-0.66016 0.10117,-0.13105 0.30067,-0.38945 0.44334,-0.57422 0.38283,-0.49578 0.68769,-0.89082 0.76332,-0.98912 l 0.0668,-0.0868 0.75097,-1.3e-4 0.75097,-1.3e-4 9.8e-4,2.4707 9.8e-4,2.47071 h -2.65722 c -1.46148,0 -2.65723,-10e-4 -2.65723,-0.002 z"
     id="path171" />
  <path
     style="fill:#5e5c64;fill-opacity:1;stroke-width:0.00390625"
     d="m 265.60426,650.89757 c 0.005,-0.005 2.24543,-2.91082 3.57149,-4.63097 l 0.23413,-0.30371 h 0.0558 c 0.0307,0 0.0557,10e-4 0.0556,0.003 -1.2e-4,0.002 -0.85751,1.11299 -1.9053,2.46973 l -1.90508,2.46679 -0.0563,10e-4 c -0.0537,10e-4 -0.0561,7.7e-4 -0.0503,-0.006 z"
     id="path172" />
  <path
     style="fill:#5e5c64;fill-opacity:1;stroke-width:0.00390625"
     d="m 265.624,650.87207 c 0.0138,-0.0177 0.20937,-0.27129 0.43466,-0.56348 0.2253,-0.29218 0.56959,-0.73867 0.76509,-0.99218 0.62996,-0.81687 0.81219,-1.05318 1.03177,-1.33789 0.42324,-0.54881 0.80259,-1.04079 1.17547,-1.52447 l 0.37864,-0.49116 h 0.0559 c 0.0308,0 0.0559,9.8e-4 0.0559,0.002 0,0.002 -0.0185,0.0264 -0.85905,1.11502 -0.32265,0.41787 -1.11873,1.44916 -1.76907,2.29176 l -1.18242,1.53199 -0.056,2.3e-4 -0.056,2.4e-4 z"
     id="path173" />
  <path
     style="fill:#5e5c64;fill-opacity:1;stroke-width:0.00390625"
     d="m 265.60612,650.89475 c 0.004,-0.005 0.70783,-0.91799 1.56419,-2.02832 0.85637,-1.11033 1.71053,-2.21785 1.89812,-2.46116 l 0.34109,-0.44238 h 0.056 c 0.0308,0 0.056,10e-4 0.056,0.002 0,10e-4 -0.0199,0.0281 -0.0443,0.0596 -0.0244,0.0315 -0.13653,0.17679 -0.24927,0.32289 -0.16068,0.20822 -1.33929,1.73481 -1.82912,2.36914 -0.0473,0.0612 -0.11512,0.14912 -0.15077,0.19531 -0.0356,0.0462 -0.25888,0.33535 -0.49609,0.64258 -0.23722,0.30722 -0.48499,0.62813 -0.55061,0.71312 -0.0656,0.085 -0.2028,0.26289 -0.30486,0.39533 l -0.18554,0.24078 -0.056,1.9e-4 -0.056,1.9e-4 z"
     id="path174" />
  <path
     style="fill:#5e5c64;fill-opacity:1;stroke-width:0.00390625"
     d="m 264.02007,650.89941 c 0.006,-0.01 2.33986,-3.01194 3.48167,-4.47851 l 0.35659,-0.45801 h 0.75978 0.75978 l -0.0134,0.0166 c -0.007,0.009 -0.21274,0.275 -0.45634,0.59082 -0.48137,0.6241 -1.40307,1.81874 -1.62292,2.10352 -0.2159,0.27966 -0.47164,0.61097 -0.62189,0.80566 -0.0759,0.0983 -0.2,0.25913 -0.27587,0.35742 -0.0759,0.0983 -0.28711,0.37207 -0.4694,0.6084 -0.18229,0.23633 -0.33657,0.43628 -0.34284,0.44434 l -0.0114,0.0147 h -0.77334 c -0.61765,0 -0.77275,-9.9e-4 -0.77039,-0.005 z"
     id="path175" />
  <path
     style="fill:#5e5c64;stroke-width:0.0125897"
     d="m 1318.6667,1267.0496 c -0.014,-0.04 -0.3887,-1.0808 -0.8331,-2.3134 -1.6222,-4.4987 -3.1118,-8.6454 -4.1878,-11.658 -0.3561,-0.9971 -0.653,-1.8259 -0.6598,-1.8419 -0.018,-0.042 -0.018,-0.042 0.045,-0.038 h 0.058 l 0.3207,0.9002 c 0.547,1.5358 1.6351,4.57 2.4221,6.7544 0.6972,1.9351 2.9576,8.193 2.9774,8.2431 0.01,0.019 6e-4,0.022 -0.054,0.022 h -0.063 z"
     id="path25" />
  <path
     style="fill:#5e5c64;stroke-width:0.0125897"
     d=""
     id="path26" />
  <path
     style="fill:#5e5c64;stroke-width:0.0125897"
     d="m 1317.9101,1264.9282 c -1.8613,-5.1673 -2.7312,-7.5879 -3.8287,-10.654 -0.352,-0.9833 -0.7424,-2.0735 -0.8675,-2.4228 -0.1252,-0.3493 -0.2276,-0.6368 -0.2276,-0.6389 0,0 0.022,0 0.049,0 0.035,0 0.051,0.01 0.057,0.022 0,0.012 0.07,0.1949 0.1451,0.4061 1.0135,2.8476 2.9359,8.1918 5.0034,13.9092 0.3088,0.8538 0.5614,1.5549 0.5614,1.558 0,0 -0.024,0.01 -0.053,0.01 h -0.053 z"
     id="path27" />
  <path
     style="fill:#5e5c64;stroke-width:0.0125897"
     d="m 1314.474,1259.1675 c -1.6007,-4.375 -2.9104,-7.9583 -2.9104,-7.963 0,0 0.028,-0.01 0.062,-0.01 0.047,0 0.064,0.01 0.07,0.022 0,0.012 0.6676,1.8236 1.4732,4.0255 0.8056,2.2019 2.106,5.7541 2.8898,7.8938 0.7838,2.1396 1.4327,3.9114 1.442,3.9374 l 0.017,0.047 h -0.067 -0.067 z"
     id="path28" />
  <path
     style="fill:#5e5c64;stroke-width:0.0408998"
     d="m 1322.4753,1277.1672 c -7.1442,-19.7809 -7.1022,-19.6644 -8.6504,-23.9975 -1.932,-5.4072 -3.7953,-10.6829 -4.8498,-13.7321 l -0.3218,-0.9304 h 24.5793 24.5793 v 25.8691 25.8691 l -15.3068,-5e-4 -15.3067,-5e-4 z"
     id="path45" />
  <path
     style="fill:#5e5c64;stroke-width:0.0408998"
     d=""
     id="path115" />
  <path
     style="fill:#5e5c64;stroke-width:0.0503778"
     d="m 1344.0932,1221.9566 c 0.035,-0.014 0.091,-0.014 0.1259,0 0.035,0.014 0.01,0.025 -0.063,0.025 -0.069,0 -0.098,-0.012 -0.063,-0.025 z"
     id="path116" />
  <path
     style="fill:#5e5c64;stroke-width:0.0503778"
     d="m 1343.4141,1222.1061 c 0.049,-0.013 0.117,-0.012 0.1511,0 0.034,0.014 -0.01,0.024 -0.089,0.023 -0.083,-0 -0.1111,-0.012 -0.062,-0.025 z"
     id="path117" />
  <path
     style="fill:#5e5c64;stroke-width:0.0503778"
     d="m 1339.5466,1222.0846 c 0.7204,-0.022 2.0009,-0.074 2.8456,-0.1144 0.9545,-0.046 1.5469,-0.056 1.5651,-0.026 0.018,0.03 1.3103,0.028 3.4517,0 7.5903,-0.114 11.8283,-0.15 16.7975,-0.1427 l 5.2142,0.01 -4.0806,0.039 c -6.8101,0.065 -18.5402,0.1968 -22.0655,0.2474 -1.8288,0.026 -3.7104,0.045 -4.1814,0.041 -0.8136,-0.01 -0.7909,-0.01 0.4534,-0.048 z"
     id="path118" />
  <path
     style="fill:#5e5c64;stroke-width:0.0503778"
     d="m 1312.0781,1222.6579 c 0.187,-0.01 0.4931,-0.01 0.6801,0 0.187,0.01 0.034,0.018 -0.3401,0.018 -0.374,0 -0.527,-0.01 -0.34,-0.018 z"
     id="path119" />
  <path
     style="fill:#5e5c64;stroke-width:0.0503778"
     d="m 1311.5976,1250.8438 c -0.041,-0.1177 -1.36,-3.7279 -2.9314,-8.0226 -3.0148,-8.2396 -6.8169,-18.6602 -7.5615,-20.7245 -0.4126,-1.1438 -0.4369,-1.2326 -0.3543,-1.293 0.322,-0.2355 0.3918,-0.236 35.6854,-0.2581 l 33.5138,-0.021 v 0.5983 0.5984 l -7.9471,0.033 c -7.1657,0.03 -9.8139,0.057 -16.0705,0.1619 -1.7719,0.03 -1.927,0.026 -1.927,-0.051 0,-0.046 -0.023,-0.069 -0.052,-0.051 -0.028,0.018 -0.6802,0.063 -1.4484,0.1013 -2.6222,0.1302 -6.1762,0.2119 -15.3261,0.3524 -6.6598,0.1023 -10.6754,0.1946 -15.3652,0.353 -5.5723,0.1882 -7.4945,0.3243 -7.9093,0.56 l -0.126,0.072 0.1512,-0.026 c 2.4554,-0.4212 16.6158,-0.8042 41.0579,-1.1106 8.4538,-0.106 14.5835,-0.1704 19.1436,-0.2013 2.1612,-0.015 4.3545,-0.038 4.874,-0.053 l 0.9446,-0.026 v 14.6109 14.6109 h -28.4329 c -27.032,0 -28.4346,0 -28.4679,-0.088 -0.4299,-1.0827 -4.9933,-14.1553 -6.775,-19.4081 -1.2827,-3.7818 -2.5192,-7.6565 -2.5214,-7.9016 -4e-4,-0.046 -0.025,-0.1173 -0.054,-0.1588 -0.04,-0.056 -0.047,0 -0.029,0.2015 0.092,1.0165 4.3746,13.767 8.694,25.884 0.2795,0.784 0.5081,1.4358 0.5081,1.4483 0,0.013 -0.2699,0.023 -0.5998,0.023 h -0.5998 z"
     id="path120" />
  <path
     style="fill:#5e5c64;stroke-width:0.0503778"
     d="m 1311.5969,1250.8438 c -0.041,-0.1177 -1.4395,-3.9433 -3.1072,-8.5012 -2.8879,-7.8928 -7.0708,-19.3594 -7.5874,-20.7996 -0.2269,-0.6324 -0.2362,-0.6777 -0.1525,-0.7389 0.3227,-0.236 0.3827,-0.2364 35.686,-0.2585 l 33.5138,-0.021 v 0.5985 0.5985 l -7.8715,0.034 c -7.1321,0.031 -10.6595,0.066 -16.1965,0.1615 -1.7282,0.03 -1.8766,0.026 -1.8766,-0.051 0,-0.046 -0.023,-0.069 -0.052,-0.052 -0.028,0.018 -0.6802,0.063 -1.4484,0.1013 -2.6207,0.1301 -6.1809,0.212 -15.3009,0.352 -7.5575,0.116 -12.8326,0.2453 -17.5063,0.4291 -3.8626,0.1518 -5.4404,0.2826 -5.7855,0.4795 l -0.1339,0.076 0.1512,-0.026 c 2.9398,-0.5043 24.7774,-0.9965 57.0529,-1.2858 3.1448,-0.028 6.4489,-0.06 7.3424,-0.071 l 1.6245,-0.02 0.013,14.6037 0.013,14.6037 -28.4558,-0.013 -28.4559,-0.013 -0.7521,-2.1158 c -4.1293,-11.6161 -7.8306,-22.5063 -8.5182,-25.063 -0.093,-0.3461 -0.1182,-0.3971 -0.1309,-0.2661 -0.031,0.3177 0.5605,2.23 2.356,7.6213 2.0886,6.2711 3.7505,11.0811 6.4717,18.7311 0.2101,0.5905 0.3819,1.0836 0.3819,1.0957 0,0.012 -0.2699,0.022 -0.5998,0.022 h -0.5998 z"
     id="path121" />
  <path
     style="fill:#5e5c64;stroke-width:0.0503778"
     d="m 1305.9708,1235.8564 c -3.0578,-8.3608 -5.5696,-15.2298 -5.5817,-15.2645 -0.017,-0.049 0.2477,-0.061 1.2302,-0.055 l 1.2522,0.01 -0.8564,0.043 c -0.9562,0.048 -1.3499,0.1212 -1.3757,0.2558 -0.019,0.097 0.044,0.2727 2.5195,7.0665 1.6309,4.4756 8.3513,22.8608 8.4295,23.0605 0.019,0.048 0.014,0.088 -0.012,0.088 -0.025,0 -2.5481,-6.8406 -5.6059,-15.2015 z"
     id="path122" />
  <path
     style="fill:#5e5c64;stroke-width:0.0503778"
     d="m 1311.6229,1250.9194 c -0.027,-0.076 -1.5169,-4.1511 -3.3105,-9.0554 -3.5989,-9.841 -6.4846,-17.7513 -7.1924,-19.7162 -0.4307,-1.1956 -0.4545,-1.282 -0.3706,-1.3434 0.3229,-0.2361 0.3994,-0.2366 35.2582,-0.2588 l 33.0856,-0.021 v 0.6067 0.6067 l -2.1033,10e-5 c -4.4799,10e-5 -12.2644,0.058 -17.4892,0.1307 -3.6492,0.051 -5.4719,0.059 -5.4928,0.025 -0.021,-0.034 -0.5105,-0.027 -1.4654,0.02 -2.5217,0.125 -6.4632,0.2188 -13.7516,0.3272 -8.4988,0.1264 -14.7839,0.2798 -19.6473,0.4796 -3.3898,0.1392 -4.6881,0.2462 -5.1581,0.4252 -0.2062,0.078 -0.1468,0.1022 0.1275,0.051 1.5111,-0.2823 11.2591,-0.6105 25.3832,-0.8546 9.8073,-0.1695 25.5473,-0.3654 35.0754,-0.4365 l 4.5213,-0.034 0.013,14.5927 0.013,14.5927 -28.028,-0.013 -28.0281,-0.013 -0.6009,-1.6876 c -0.7513,-2.1102 -2.7753,-7.861 -3.3687,-9.5718 -3.1236,-9.0047 -4.711,-13.776 -5.3465,-16.0705 -0.1141,-0.412 -0.1065,-0.042 0.01,0.4093 0.5864,2.3008 4.4178,13.6467 8.4327,24.9716 0.3763,1.0615 0.6842,1.94 0.6842,1.9521 0,0.012 -0.2698,0.022 -0.5996,0.022 h -0.5996 z"
     id="path123" />
  <path
     style="fill:#5e5c64;stroke-width:0.0503778"
     d=""
     id="path124" />
  <path
     style="fill:#5e5c64;stroke-width:0.0117509"
     d="m 1304.7415,1223.0555 c 0,-0.023 0,-0.041 0.01,-0.042 0,-10e-5 0.075,-0.01 0.1557,-0.017 1.9113,-0.2233 10.7003,-0.5156 20.141,-0.6698 1.553,-0.025 2.5568,-0.04 3.2785,-0.047 0.3458,0 0.6564,-0.01 0.6904,-0.012 0.059,-0.01 0.062,0 0.062,0.024 0,0.028 0,0.029 -0.073,0.029 -0.1164,10e-5 -3.253,0.06 -4.95,0.094 -9.1657,0.1864 -15.328,0.3876 -18.349,0.5991 -0.4169,0.029 -0.9021,0.069 -0.9372,0.077 -0.024,0.01 -0.026,0 -0.026,-0.035 z m 7.9825,-0.3782 c 0.2223,-0.015 0.083,-0.027 -0.3053,-0.027 -0.38,-2e-4 -0.5281,0.01 -0.3447,0.024 0.1315,0.01 0.5185,0.012 0.65,0 z"
     id="path143" />
  <path
     style="fill:#5e5c64;stroke-width:0.0117509"
     d="m 1304.7532,1223.0507 c 0,-0.027 0.01,-0.037 0.021,-0.037 0.011,0 0.121,-0.01 0.2438,-0.023 0.9461,-0.098 3.0334,-0.2044 6.2438,-0.3187 0.6133,-0.022 0.7225,-0.023 0.7311,-0.01 0.01,0.013 0.076,0.017 0.3542,0.02 0.3486,0 0.4967,0 0.4846,-0.023 0,-0.01 -0.1679,-0.012 -0.3791,-0.013 -0.432,0 -0.4204,0 0.3444,-0.027 4.4758,-0.1389 8.8161,-0.237 13.772,-0.3114 1.8123,-0.027 2.4915,-0.034 2.5022,-0.023 0.01,0.01 0.01,0.015 0,0.019 0,0 -0.3667,0.015 -0.8042,0.023 -9.1335,0.1637 -16.3002,0.3581 -20.296,0.5506 -1.3252,0.064 -2.7724,0.1559 -3.1581,0.2009 l -0.062,0.01 z"
     id="path144" />
  <path
     style="fill:#5e5c64;stroke-width:0.0109637"
     d="m 1307.2307,1234.7467 c -0.099,-0.2841 -1.1126,-3.2915 -1.3485,-3.999 -1.0586,-3.1755 -1.9068,-5.8582 -2.144,-6.781 -0.035,-0.1365 -0.053,-0.2295 -0.057,-0.3015 0,-0.057 0,-0.1008 0,-0.097 0,0 0.037,0.1201 0.072,0.2577 0.2807,1.1016 1.166,3.8548 2.6293,8.1769 0.1947,0.5752 0.3531,1.0401 0.8232,2.4159 0.073,0.2133 0.1324,0.3897 0.1324,0.392 0,0 -0.019,0 -0.043,0 -0.043,0 -0.043,-2e-4 -0.067,-0.069 z"
     id="path145" />
  <path
     style="fill:#5e5c64;stroke-width:0.0109637"
     d="m 1307.2522,1234.7817 c -0.01,-0.012 -0.058,-0.1591 -0.1145,-0.3261 -0.5726,-1.6972 -0.7476,-2.2164 -0.9892,-2.9349 -1.1423,-3.3977 -2.1814,-6.6653 -2.4056,-7.565 -0.024,-0.096 -0.046,-0.2099 -0.049,-0.2522 l -0.01,-0.077 0.016,0.049 c 0.01,0.027 0.051,0.1801 0.094,0.3399 0.2837,1.0513 0.9488,3.1363 1.9936,6.2493 0.5324,1.5864 0.6419,1.9106 0.989,2.9273 0.176,0.5156 0.3684,1.0805 0.4276,1.2554 0.059,0.1748 0.1111,0.3266 0.1152,0.3371 0.012,0.03 -0.056,0.027 -0.072,0 z"
     id="path146" />
  <path
     style="fill:#5e5c64;stroke-width:0.0109637"
     d="m 1303.9908,1223.1713 c 0.1103,-0.047 0.4095,-0.1105 0.6934,-0.1475 l 0.058,-0.01 v 0.039 c 0,0.028 0,0.039 -0.017,0.039 -0.056,0 -0.546,0.061 -0.7531,0.094 -0.03,0 -0.027,0 0.019,-0.017 z"
     id="path147" />
  <path
     style="fill:#5e5c64;stroke-width:0.0109637"
     d="m 1304.0785,1223.1497 c 0.082,-0.027 0.3339,-0.08 0.4934,-0.1035 0.066,-0.01 0.132,-0.02 0.146,-0.023 0.022,0 0.025,0 0.022,0.025 0,0.036 0.021,0.031 -0.3817,0.08 -0.1478,0.018 -0.2859,0.035 -0.307,0.038 -0.026,0 -0.018,0 0.027,-0.017 z"
     id="path176" />
  <path
     style="fill:#5e5c64;stroke-width:0.0109637"
     d="m 1301.998,1225.0713 c -0.915,-2.501 -1.6636,-4.5509 -1.6636,-4.5555 0,0 1.6121,-0.01 3.5824,-0.01 2.6859,0 3.3108,0 2.497,0.01 -1.1988,0.01 -2.5302,0.027 -3.1631,0.043 -0.2261,0.01 -0.5246,0.013 -0.6633,0.015 l -0.2521,0.01 0.2615,-0.015 c 0.1438,-0.01 0.2636,-0.017 0.2663,-0.02 0.01,-0.01 -1.6794,-0.022 -2.0024,-0.015 -0.3288,0.01 -0.4434,0.017 -0.4668,0.043 -0.01,0.011 0.3453,0.9935 1.6355,4.52 0.9067,2.4784 1.6486,4.5098 1.6487,4.5143 10e-5,0 0,0.01 -0.01,0.01 0,0 -0.757,-2.0463 -1.672,-4.5472 z"
     id="path177" />
  <path
     style="fill:#5e5c64;stroke-width:0.00477213"
     d="m 1303.3881,1228.7867 c -0.01,-0.018 -1.289,-3.5252 -1.7069,-4.6684 -0.2706,-0.7401 -0.493,-1.3495 -0.4942,-1.354 0,-0.01 0,-0.01 0.046,-0.01 h 0.048 v 0.013 c 0.033,0.092 0.4947,1.3637 0.7439,2.0485 0.4991,1.3714 1.432,3.9317 1.4463,3.9692 0,0 -0.01,0.01 -0.041,0.01 -0.031,0 -0.044,0 -0.046,-0.01 z"
     id="path178" />
  <path
     style="fill:#5e5c64;stroke-width:0.00477213"
     d="m 1303.3885,1228.5338 c -0.8295,-2.2745 -2.0497,-5.628 -2.0932,-5.7528 l -0.01,-0.025 h 0.011 c 0.01,0 0.013,0.01 0.03,0.054 0.081,0.2246 1.1269,3.1 1.4184,3.9 0.4196,1.1515 0.7518,2.0626 0.7565,2.0747 0,0.01 8e-4,0.01 -0.01,0.01 -0.011,0 -0.017,-0.014 -0.106,-0.2589 z"
     id="path179" />
  <path
     style="fill:#5e5c64;stroke-width:0.00477213"
     d=""
     id="path180" />
  <path
     style="fill:#5e5c64;stroke-width:0.00477213"
     d="m 1301.2963,1222.7563 c -0.012,0 0,0.021 -0.2328,-0.6184 -0.1671,-0.4655 -0.293,-0.8237 -0.3444,-0.9807 -0.068,-0.2065 -0.079,-0.2567 -0.02,-0.091 0.07,0.1968 0.2883,0.8036 0.45,1.2502 0.088,0.2427 0.1594,0.4415 0.1589,0.4418 -5e-4,3e-4 -0.01,-8e-4 -0.012,0 z"
     id="path181" />
  <path
     style="fill:#5e5c64;stroke-width:0.00477213"
     d="m 1301.2922,1222.7499 c -0.01,-0.01 -0.011,-0.02 -0.1072,-0.2851 -0.2451,-0.6738 -0.4814,-1.347 -0.4752,-1.3532 0,0 0.034,0.086 0.073,0.1947 0.066,0.1835 0.4929,1.369 0.5134,1.4246 0.01,0.023 0.01,0.033 0,0.019 z"
     id="path182" />
  <path
     style="fill:#5e5c64;stroke-width:0.00477213"
     d=""
     id="path183" />
  <path
     style="fill:#5e5c64;stroke-width:0.00477213"
     d="m 1300.7708,1220.7423 c 0.013,-0.01 0.1038,-0.033 0.161,-0.045 0.1751,-0.037 0.4511,-0.067 0.8363,-0.091 0.1994,-0.013 0.6876,-0.036 0.7055,-0.035 0.01,10e-4 0,0 -0.018,0 -0.02,7e-4 -0.054,0 -0.076,0.01 -0.035,0 -0.031,0 0.024,0 0.086,0 0.3926,-0.01 0.3531,0 -0.017,9e-4 -0.104,0 -0.1933,0.01 -0.9293,0.029 -1.5362,0.081 -1.7531,0.1505 -0.038,0.012 -0.051,0.015 -0.039,0.01 z"
     id="path184" />
  <path
     style="fill:#5e5c64;stroke-width:0.00477213"
     d=""
     id="path185" />
  <path
     style="fill:#5e5c64;stroke-width:0.00477213"
     d=""
     id="path186" />
  <path
     style="fill:#5e5c64;stroke-width:0.00775254"
     d="m 1302.102,1224.9145 c -0.01,-0.013 -0.9799,-2.6912 -1.2569,-3.4632 -0.1757,-0.49 -0.1978,-0.5546 -0.1978,-0.5791 0,-0.03 0.032,-0.07 0.074,-0.093 0.021,-0.011 0.042,-0.024 0.047,-0.028 0,0 0.012,-0.01 0.017,0 0.01,0 0.01,0 0.01,-0.01 0,-0.01 0.01,-0.01 0.012,0 0.01,0 0.012,8e-4 0.012,0 0,0 0.01,-0.01 0.016,0 0.012,0 0.015,0 0.01,0 0,-0.01 -7e-4,-0.01 0.015,0 0.016,0 0.02,0 0.016,0 0,-0.01 9e-4,-0.01 0.019,0 0.018,0 0.023,0 0.019,0 0,-0.01 0,-0.01 0.021,0 0.02,0 0.024,0 0.015,0 -0.01,-0.01 0,-0.01 0.019,0 0.023,0 0.028,0 0.019,0 -0.01,-0.01 0,-0.01 0.027,0 0.025,0 0.033,0 0.023,0 -0.01,0 -0.011,-0.01 0,-0.01 0.01,-3e-4 0.063,-0.01 0.1279,-0.016 0.3354,-0.044 1.1151,-0.092 1.2647,-0.078 0.091,0.01 0.1417,0.01 0.114,0 -0.01,0 0.072,-0.01 0.1821,-0.01 0.1101,-6e-4 0.3431,-0.01 0.518,-0.01 1.0112,-0.027 2.7929,-0.045 6.0876,-0.059 h 1.0718 v 1.0898 c 0,1.0327 -7e-4,1.0898 -0.014,1.0898 -0.042,0 -1.3624,0.053 -1.8238,0.074 -3.1381,0.1383 -4.2558,0.2412 -4.6425,0.4272 -0.031,0.015 -0.056,0.028 -0.054,0.03 0,0 0.034,0 0.072,-0.012 0.4824,-0.099 1.8705,-0.2083 3.8801,-0.3059 0.7526,-0.037 1.9781,-0.089 2.3568,-0.101 0.079,0 0.1617,-0.01 0.1841,-0.01 h 0.041 v 1.0665 1.0665 h -3.1616 -3.1617 l -0.041,-0.1376 c -0.1338,-0.4471 -0.2668,-0.9265 -0.3142,-1.1326 -0.014,-0.061 -0.029,-0.1147 -0.034,-0.1191 -0.013,-0.013 -0.02,0.056 -0.015,0.1443 0.01,0.1243 0.079,0.4101 0.2542,1.0031 0.038,0.1292 0.069,0.2364 0.069,0.2384 0,0.01 -1.8905,0 -1.8944,0 z m -0.7978,-4.2548 c 0,0 -0.01,0 -0.015,-6e-4 -0.01,0 0,0 0,0 0.01,3e-4 0.013,0 0.01,0 z m 0.1706,-0.015 c 0,0 -0.01,0 -0.015,-6e-4 -0.01,0 0,0 0,0 0.01,3e-4 0.013,0 0.01,0 z m 0.1127,-0.01 c -0.01,0 -0.016,0 -0.023,-2e-4 -0.01,0 0,0 0.01,0 0.013,2e-4 0.019,0 0.014,0 z m 0.1085,-0.01 c -0.01,0 -0.016,0 -0.023,-3e-4 -0.01,0 0,0 0.01,0 0.013,10e-5 0.019,0 0.014,0 z m 0.1396,-0.01 c -0.01,0 -0.016,0 -0.023,-2e-4 -0.01,0 0,0 0.01,0 0.013,2e-4 0.019,0 0.014,0 z m 0.1316,-0.01 c -0.01,0 -0.025,0 -0.035,0 -0.01,0 0,0 0.018,0 0.019,0 0.027,0 0.017,0 z m 0.1707,-0.01 c -0.01,0 -0.027,0 -0.039,-1e-4 -0.012,0 0,0 0.017,0 0.021,1e-4 0.031,0 0.021,0 z m 0.182,-0.01 c -0.012,0 -0.031,0 -0.043,0 -0.012,0 0,0 0.021,0 0.024,0 0.033,0 0.021,0 z"
     id="path187" />
  <path
     style="fill:#5e5c64;stroke-width:0.00775254"
     d="m 1301.7852,1224.0502 c -1.0196,-2.8099 -1.1379,-3.1403 -1.1379,-3.1783 0,-0.03 0.032,-0.07 0.074,-0.093 0.021,-0.011 0.042,-0.024 0.047,-0.028 0,0 0.012,-0.01 0.017,0 0.01,0 0.01,0 0.01,-0.01 0,-0.01 0.01,-0.01 0.012,0 0.01,0 0.012,8e-4 0.012,0 0,0 0.01,-0.01 0.016,0 0.012,0 0.015,0 0.01,0 0,-0.01 -7e-4,-0.01 0.015,0 0.016,0 0.02,0 0.016,0 0,-0.01 9e-4,-0.01 0.019,0 0.018,0 0.023,0 0.019,0 0,-0.01 0,-0.01 0.021,0 0.02,0 0.024,0 0.015,0 -0.01,-0.01 0,-0.01 0.019,0 0.023,0 0.028,0 0.019,0 -0.01,-0.01 0,-0.01 0.027,0 0.025,0 0.033,0 0.023,0 -0.01,0 -0.011,-0.01 0,-0.01 0.01,-3e-4 0.063,-0.01 0.1279,-0.016 0.3354,-0.044 1.1151,-0.092 1.2647,-0.078 0.091,0.01 0.1417,0.01 0.114,0 -0.01,0 0.072,-0.01 0.1821,-0.01 0.1101,-6e-4 0.3431,-0.01 0.518,-0.01 1.0112,-0.027 2.7929,-0.045 6.0877,-0.059 h 1.0719 l -2e-4,1.1363 -3e-4,1.1363 h -0.044 c -0.049,10e-5 -0.7991,0.03 -1.3701,0.054 -1.3364,0.057 -2.5553,0.1232 -3.3801,0.1825 -0.4028,0.029 -0.8087,0.063 -0.8392,0.071 -0.015,0 -0.018,0 -0.018,-0.018 l -6e-4,-0.022 -0.01,0.02 c -0.01,0.019 -0.011,0.02 -0.073,0.025 -0.113,0.01 -0.5008,0.059 -0.552,0.072 -0.06,0.015 -0.058,0.022 0,0.011 0.2999,-0.053 1.191,-0.1313 2.2665,-0.1981 0.858,-0.053 2.9647,-0.1525 3.791,-0.1785 0.079,0 0.1617,-0.01 0.1841,-0.01 h 0.041 v 1.0665 1.0665 h -3.1673 -3.1672 l -0.045,-0.1531 c -0.115,-0.389 -0.2267,-0.7902 -0.2874,-1.033 -0.044,-0.1769 -0.055,-0.1945 -0.064,-0.1014 0,0.026 -10e-5,0.074 0.01,0.1072 0.021,0.1331 0.1135,0.4818 0.2557,0.9615 0.034,0.1163 0.063,0.2131 0.063,0.2152 0,0 -0.4265,0 -0.9477,0 l -0.9478,-1e-4 z m -0.481,-3.3905 c 0,0 -0.01,0 -0.015,-6e-4 -0.01,0 0,0 0,0 0.01,3e-4 0.013,0 0.01,0 z m 0.1706,-0.015 c 0,0 -0.01,0 -0.015,-6e-4 -0.01,0 0,0 0,0 0.01,3e-4 0.013,0 0.01,0 z m 0.1127,-0.01 c -0.01,0 -0.016,0 -0.023,-2e-4 -0.01,0 0,0 0.01,0 0.013,2e-4 0.019,0 0.014,0 z m 0.1085,-0.01 c -0.01,0 -0.016,0 -0.023,-3e-4 -0.01,0 0,0 0.01,0 0.013,10e-5 0.019,0 0.014,0 z m 0.1396,-0.01 c -0.01,0 -0.016,0 -0.023,-2e-4 -0.01,0 0,0 0.01,0 0.013,2e-4 0.019,0 0.014,0 z m 0.1316,-0.01 c -0.01,0 -0.025,0 -0.035,0 -0.01,0 0,0 0.018,0 0.019,0 0.027,0 0.017,0 z m 0.1707,-0.01 c -0.01,0 -0.027,0 -0.039,-1e-4 -0.012,0 0,0 0.017,0 0.021,1e-4 0.031,0 0.021,0 z m 0.182,-0.01 c -0.012,0 -0.031,0 -0.043,0 -0.012,0 0,0 0.021,0 0.024,0 0.033,0 0.021,0 z"
     id="path188" />
  <path
     style="fill:#5e5c64;stroke-width:0.0219298"
     d="m 1312.7567,1250.5757 c -0.121,-0.3408 -0.4585,-1.2906 -0.7499,-2.1108 -1.2488,-3.5149 -2.3257,-6.588 -3.3047,-9.4298 -0.6014,-1.7458 -1.4324,-4.1856 -1.4324,-4.2054 0,-0.011 0.016,-0.016 0.036,-0.012 0.026,0.01 0.1441,0.322 0.4286,1.1474 1.2608,3.6589 2.8962,8.3271 4.525,12.9167 0.3339,0.9408 0.6552,1.8462 0.714,2.012 0.1065,0.3007 0.1067,0.3016 0.055,0.3016 -0.048,0 -0.068,-0.047 -0.2716,-0.6195 z"
     id="path189" />
  <path
     style="fill:#5e5c64;stroke-width:0.0219298"
     d="m 1311.5458,1251.1458 c -0.071,-0.164 -0.8111,-2.2205 -0.8056,-2.237 0,-0.011 0.1635,0.4026 0.3552,0.9193 0.4268,1.1502 0.4569,1.2245 0.4962,1.2245 0.035,0 0.052,0.021 0.074,0.093 0.013,0.042 0.01,0.049 -0.042,0.049 -0.038,0 -0.064,-0.016 -0.078,-0.049 z"
     id="path190" />
  <path
     style="fill:#5e5c64;stroke-width:0.0219298"
     d=""
     id="path191" />
  <path
     style="fill:#5e5c64;stroke-width:0.0219298"
     d="m 1311.3768,1250.5135 c -0.037,-0.1015 -0.3264,-0.8803 -0.6421,-1.7306 -0.7309,-1.9687 -2.2824,-6.1851 -3.6474,-9.9123 -1.7908,-4.89 -3.6334,-9.9333 -3.6334,-9.945 0,-0.01 0.013,-0.011 0.029,-0.011 0.019,0 0.6429,1.6806 1.757,4.7313 2.1607,5.9167 5.1194,14.0104 5.7452,15.7168 0.2607,0.7109 0.4708,1.3021 0.4668,1.314 0,0.012 -0.038,-0.062 -0.075,-0.1631 z"
     id="path192" />
  <path
     style="fill:#5e5c64;stroke-width:0.0219298"
     d=""
     id="path193" />
  <path
     style="fill:#5e5c64;stroke-width:0.0219298"
     d="m 1326.48,1288.6615 c -0.1102,-0.2897 -7.742,-21.4259 -7.7578,-21.485 -0.01,-0.029 0,-0.038 0.042,-0.038 0.05,0 0.2418,0.525 3.889,10.6195 2.1102,5.8407 3.8639,10.696 3.8971,10.7894 l 0.06,0.17 h -0.055 c -0.039,0 -0.061,-0.017 -0.076,-0.056 z"
     id="path194" />
  <path
     style="fill:#5e5c64;stroke-width:0.0219298"
     d="m 1325.2738,1288.6678 c -0.027,-0.063 -7.8725,-21.5129 -7.8725,-21.5242 0,0 0.027,-0.01 0.06,0 0.059,0.01 0.076,0.05 0.823,2.0903 2.1786,5.9511 7.0689,19.2839 7.1327,19.4462 0.025,0.064 -0.1159,0.053 -0.1435,-0.011 z"
     id="path195" />
  <path
     style="fill:#5e5c64;stroke-width:0.0219298"
     d=""
     id="path196" />
  <path
     style="fill:#5e5c64;stroke-width:0.0219298"
     d="m 1326.9864,1293.3498 c -0.9211,-2.5178 -1.6789,-4.5891 -1.684,-4.6028 -0.01,-0.016 0.016,-0.023 0.062,-0.019 l 0.071,0.01 0.9178,2.4974 c 0.7884,2.1455 1.7726,4.8145 2.2,5.9661 0.068,0.183 0.1351,0.3481 0.1491,0.3668 0.034,0.045 0.2797,0.071 0.9577,0.1004 1.4114,0.061 2.496,0.072 8.2401,0.082 l 6.0362,0.01 v 0.044 c 0,0.044 0,0.044 1.4419,0.031 0.793,-0.01 4.1014,-0.023 7.352,-0.035 3.2505,-0.012 6.1987,-0.026 6.5515,-0.031 0.507,-0.01 0.6414,0 0.6414,0.019 0,0.022 -0.737,0.031 -3.6787,0.043 -3.5504,0.015 -26.7829,0.1004 -27.3196,0.1007 l -0.2637,2e-4 z"
     id="path197" />
  <path
     style="fill:#5e5c64;stroke-width:0.0219298"
     d="m 1329.1893,1296.1568 c -0.01,-0.021 -0.6111,-1.6875 -1.3396,-3.7031 -0.7285,-2.0156 -1.3311,-3.6817 -1.3391,-3.7024 -0.012,-0.031 0,-0.036 0.046,-0.03 0.059,0.01 0.083,0.069 1.3954,3.7024 0.7344,2.0324 1.3409,3.7125 1.3478,3.7336 0.01,0.03 2e-4,0.038 -0.041,0.038 -0.031,0 -0.06,-0.016 -0.069,-0.038 z"
     id="path198" />
  <path
     style="fill:#5e5c64;stroke-width:0.0219298"
     d="m 1341.3596,1296.3035 c -0.9407,-0.01 -3.0773,-0.028 -4.7478,-0.043 -1.6705,-0.015 -3.8168,-0.034 -4.7697,-0.043 -0.9528,-0.01 4.9756,-0.017 13.1743,-0.019 h 14.9068 v 0.051 0.051 l -3.4703,0.014 c -4.2422,0.018 -12.765,0.013 -15.0933,-0.01 z"
     id="path199" />
  <path
     style="fill:#5e5c64;stroke-width:0.0219298"
     d="m 1332.0285,1297.7066 c -1.6585,-0.028 -2.8898,-0.074 -3.2164,-0.1212 l -0.091,-0.013 -0.092,-0.2445 c -0.5701,-1.5202 -5.9645,-16.1983 -5.9645,-16.2293 0,-0.01 0.2358,-0.013 0.5239,-0.013 0.4788,0 0.5253,0 0.5389,0.038 0.022,0.057 5.3847,14.8921 5.4213,14.9974 l 0.031,0.091 1.1885,0.014 c 1.2423,0.015 4.3205,0.041 9.1052,0.079 1.5559,0.012 3.1965,0.028 3.6458,0.036 l 0.8169,0.014 v 0.6882 0.6883 h -5.466 c -3.0063,0 -5.9052,-0.011 -6.4419,-0.02 z"
     id="path200" />
  <path
     style="fill:#5e5c64;stroke-width:0.0219298"
     d="m 1331.8051,1296.2021 c 0.016,-0.01 0.035,-0.01 0.042,0 0.01,0.01 -0.01,0.012 -0.029,0.012 -0.025,0 -0.031,-0.01 -0.013,-0.013 z"
     id="path201" />
  <path
     style="fill:#5e5c64;stroke-width:0.0219298"
     d=""
     id="path202" />
  <path
     style="fill:#5e5c64;stroke-width:0.0219298"
     d="m 1329.3206,1296.1349 c -0.015,-0.037 -1.7826,-4.9271 -4.2158,-11.6612 -0.658,-1.8213 -1.2011,-3.3287 -1.2069,-3.3498 -0.01,-0.037 0.8582,-0.038 18.0074,-0.038 h 18.0179 v 7.5439 7.5438 h -15.2937 c -14.545,0 -15.2944,0 -15.3089,-0.038 z"
     id="path203" />
  <path
     style="fill:#5e5c64;stroke-width:0.0219298"
     d="m 1329.3199,1296.1458 c -0.7282,-2.019 -2.7611,-7.6475 -4.3465,-12.034 -0.902,-2.4956 -1.0809,-2.9936 -1.0809,-3.0095 0,-0.01 8.107,-0.017 18.0154,-0.017 h 18.0153 v 7.5439 7.5438 h -15.2967 c -12.2175,0 -15.2987,-0.01 -15.3066,-0.027 z"
     id="path204" />
  <rect
     style="fill:#5e5c64"
     id="rect204"
     width="246.4606"
     height="2.1269226"
     x="1329.2124"
     y="1294.9817"
     ry="0.38214135" />
  <path
     style="fill:#5e5c64;stroke-width:0.0332336"
     d="m 1574.9252,1294.9477 c 0,-0.012 3.3077,-4.8735 7.3503,-10.8032 6.286,-9.2201 7.3617,-10.7813 7.4286,-10.7813 0.071,0 0.05,0.041 -0.2228,0.4404 -0.1656,0.2422 -3.4752,5.0989 -7.3547,10.7926 -5.4458,7.9927 -7.0704,10.3547 -7.1274,10.3629 -0.041,0.01 -0.074,7e-4 -0.074,-0.011 z"
     id="path205" />
  <path
     style="fill:#5e5c64;stroke-width:0.0332336"
     d="m 1575.5899,1297.0128 c 0,-0.01 0.022,-0.056 0.05,-0.108 0.027,-0.052 0.05,-0.1284 0.05,-0.169 10e-5,-0.041 0.3556,-0.5958 0.8097,-1.2629 1.2737,-1.8709 7.4416,-11.0046 11.6697,-17.2808 3.124,-4.6373 3.8689,-5.7228 3.9278,-5.7243 0.061,0 -0.045,0.1735 -0.648,1.0709 -6.7443,10.0384 -15.8087,23.4869 -15.8304,23.4869 -0.016,0 -0.028,-0.01 -0.028,-0.013 z"
     id="path206" />
  <path
     style="fill:#5e5c64;stroke-width:0.0332336"
     d="m 1575.6896,1296.8272 c 0,-0.112 0.2289,-0.4589 3.1798,-4.8199 0.6864,-1.0144 3.4472,-5.1047 6.1351,-9.0894 6.6939,-9.9236 7.0334,-10.4216 6.957,-10.2061 -0.04,0.1127 -16.0911,23.9554 -16.2441,24.1293 -0.017,0.019 -0.028,0.013 -0.028,-0.014 z"
     id="path207" />
  <path
     style="fill:#5e5c64;stroke-width:0.0332336"
     d="m 1589.7059,1273.3699 c -0.032,-0.01 -0.058,-0.018 -0.058,-0.026 0,-0.011 15.4954,-22.7542 15.5387,-22.8069 0,-0.01 0.038,-0.01 0.073,0 0.053,0.01 -0.2089,0.4119 -1.464,2.2542 -0.8405,1.2338 -4.243,6.2288 -7.5611,11.1001 -7.244,10.6344 -6.4573,9.4923 -6.5286,9.4782 z"
     id="path208" />
  <path
     style="fill:#5e5c64;stroke-width:0.0332336"
     d="m 1563.4929,1271.552 v -21.0203 h 20.8241 20.8241 l -0.061,0.094 c -0.034,0.052 -6.4822,9.5109 -14.3297,21.0203 l -14.2683,20.9261 h -6.4944 -6.4944 z"
     id="path209" />
  <path
     style="fill:#5e5c64;stroke-width:0.0332336"
     d="m 1563.4929,1271.552 v -21.0203 h 20.8228 c 16.6497,0 20.8177,0.01 20.7974,0.042 -0.014,0.023 -6.4615,9.482 -14.3277,21.0203 l -14.3023,20.9787 h -6.4951 -6.4951 z"
     id="path210" />
  <path
     style="fill:#5e5c64;stroke-width:0.0332336"
     d="m 1576.8047,1292.4815 c 0.033,-0.051 5.3485,-7.8537 11.8122,-17.3403 6.4637,-9.4865 12.88,-18.9045 14.2585,-20.9288 l 2.5062,-3.6807 h 0.692 0.692 l -0.5116,0.7561 c -0.2814,0.4158 -1.7801,2.6404 -3.3305,4.9435 -6.5138,9.6759 -18.1053,26.8686 -22.2719,33.0342 l -2.2235,3.2902 -0.8417,0.01 -0.8417,0.01 z"
     id="path211" />
  <path
     style="fill:#5e5c64;stroke-width:0.0332336"
     d="m 1592.101,1272.4694 c -0.045,-0.016 0.501,-0.8464 2.7551,-4.1909 1.5461,-2.294 4.8656,-7.2217 7.3767,-10.9505 3.3056,-4.9085 4.5847,-6.7827 4.6345,-6.7907 0.053,-0.01 -0.043,0.1541 -0.4117,0.6979 -0.3895,0.5748 -13.642,20.2728 -14.1519,21.0348 -0.1098,0.1642 -0.1609,0.2145 -0.2027,0.1994 z"
     id="path212" />
  <path
     style="fill:#5e5c64;stroke-width:0.0332336"
     d="m 1592.1844,1272.3573 c 0.034,-0.095 0.5046,-0.8181 1.4452,-2.2177 2.8075,-4.1778 10.6896,-15.8725 11.7481,-17.4311 0.7187,-1.0581 0.6919,-1.0202 0.7107,-1.0014 0.015,0.015 -13.817,20.6022 -13.8912,20.6758 -0.023,0.022 -0.027,0.014 -0.013,-0.026 z"
     id="path213" />
  <path
     style="fill:#5e5c64;stroke-width:0.0332336"
     d=""
     id="path214" />
  <path
     style="fill:#5e5c64;stroke-width:0.0332336"
     d="m 1606.8667,1250.5342 c -0.031,-0.019 0.2223,-0.4192 0.9186,-1.4518 1.7099,-2.5355 10.5126,-15.6233 13.5487,-20.1442 2.1975,-3.2722 2.9679,-4.3952 3.0151,-4.3952 0.055,0 0.046,0.026 -0.066,0.1911 -0.092,0.1366 -16.707,24.8343 -17.3029,25.7207 -0.047,0.07 -0.086,0.097 -0.1139,0.079 z"
     id="path215" />
  <path
     style="fill:#5e5c64;stroke-width:0.0332336"
     d="m 1594.4666,1266.567 c 0,-0.01 0.3039,-0.4615 0.6754,-1.0053 0.3715,-0.5438 2.7072,-3.9723 5.1906,-7.6189 2.4833,-3.6465 5.1575,-7.5722 5.9425,-8.7238 2.2531,-3.3048 11.7374,-17.2557 14.3695,-21.1366 l 2.3892,-3.5227 0.5884,-0.01 c 0.3237,-0.01 0.5885,4e-4 0.5885,0.012 0,0.038 -12.0107,17.9019 -24.9563,37.1194 -0.3942,0.5851 -1.2984,1.9274 -2.0094,2.9827 l -1.2926,1.9189 h -0.7429 c -0.4086,0 -0.7429,-0.01 -0.7429,-0.017 z"
     id="path216" />
  <path
     style="fill:#5e5c64;stroke-width:0.0332336"
     d=""
     id="path217" />
  <path
     style="fill:#5e5c64;stroke-width:0.0332336"
     d=""
     id="path218" />
  <path
     style="fill:#5e5c64;stroke-width:0.028885"
     d=""
     id="path219" />
  <path
     style="fill:#5e5c64;stroke-width:0.028885"
     d=""
     id="path220" />
  <path
     style="fill:#5e5c64;stroke-width:0.028885"
     d="m 1308.4082,676.84142 c 0.011,-0.0357 0.8876,-2.84012 1.9469,-6.23195 7.4709,-23.92123 9.4582,-30.24263 9.5077,-30.24263 0.046,0 0.047,0.0101 0.01,0.12276 -0.079,0.23996 -11.3657,36.3902 -11.3657,36.40339 0,0.007 -0.027,0.0134 -0.06,0.0134 -0.049,0 -0.056,-0.0118 -0.039,-0.065 z"
     id="path221" />
  <path
     style="fill:#5e5c64;stroke-width:0.028885"
     d="m 1307.1501,676.30705 c 0.1942,-0.58546 11.6716,-35.74665 11.7105,-35.87522 0.012,-0.0397 0.043,-0.065 0.079,-0.065 0.035,0 0.053,0.0145 0.045,0.0361 -0.019,0.0483 -8.2886,25.39928 -10.3088,31.60023 -1.4804,4.54415 -1.602,4.90323 -1.6608,4.90323 -0.061,0 -0.056,-0.0234 0.1354,-0.59936 z"
     id="path222" />
  <path
     style="fill:#5e5c64;stroke-width:2.27273"
     d="m 1420.4545,1296.5909 -90.909,-1.1364 -6.2522,-18.1818 c -5.7791,-16.8059 -8.3233,-22.8835 -18.4607,-44.0991 -5.685,-11.8976 -4.9573,-14.6758 3.406,-13.0031 3.9063,0.7812 76.558,1.4204 161.4484,1.4204 h 154.346 l -9.1756,13.5117 c -5.0466,7.4314 -9.1756,14.1146 -9.1756,14.8516 0,0.737 -7.2459,11.4775 -16.102,23.8678 l -16.1021,22.5278 -31.057,0.6888 c -17.0814,0.3788 -71.9662,0.1773 -121.9662,-0.4477 z"
     id="path223" />
  <path
     style="fill:#5e5c64;stroke-width:2.27273"
     d="M 250.82799,1259.6591 227.85181,1225 l 55.39228,-1.392 c 30.46575,-0.7656 101.7801,-1.5326 158.47634,-1.7045 97.31557,-0.2951 102.99839,-0.09 101.55321,3.6647 -0.84198,2.1875 -6.80771,18.5511 -13.25719,36.3636 l -11.72629,32.3864 h -122.243 -122.24299 z"
     id="path224" />
  <path
     style="fill:#5e5c64;stroke-width:2.27273"
     d="M 250.82799,1259.6591 227.85181,1225 l 55.39228,-1.392 c 30.46575,-0.7656 101.7801,-1.5326 158.47634,-1.7045 81.63057,-0.2475 102.85925,0.2786 102.00382,2.5283 -0.59414,1.5625 -6.54909,17.9262 -13.23323,36.3637 l -12.15297,33.5227 H 396.07111 273.80417 Z"
     id="path225" />
  <path
     style="fill:#77767b;stroke-width:2.27273;fill-opacity:1"
     d="m 250.99913,1260.0221 c -12.61548,-18.8629 -22.48736,-34.746 -21.93753,-35.2958 0.54984,-0.5499 71.8816,-1.6488 158.51501,-2.4421 154.55289,-1.4151 157.48382,-1.3604 155.84119,2.9095 -0.92075,2.3935 -6.88019,18.9256 -13.24321,36.7381 l -11.56911,32.3864 H 396.27093 273.93637 Z"
     id="path226" />
  <path
     style="fill:#77767b;fill-opacity:1;stroke-width:2.27273"
     d="M 1292.0455,959.09091 V 751.13636 h 177.2727 177.2727 v 207.95455 207.95459 h -177.2727 -177.2727 z"
     id="path227" />
  <path
     style="fill:#77767b;fill-opacity:1;stroke-width:2.27273"
     d="m 608.92715,960.81064 c 0.90669,-35.92914 1.84668,-65.52386 2.08886,-65.76604 0.24218,-0.24218 141.30015,-1.17756 313.46215,-2.07862 L 1237.5,891.3277 v 67.40433 67.40437 H 922.3893 607.27861 Z"
     id="path228" />
  <path
     style="fill:#77767b;fill-opacity:1;stroke-width:2.27273"
     d="M 201.13636,960.22727 V 751.13636 h 177.05781 177.05781 l 0.78309,111.93182 c 0.43073,61.5625 0.43373,155.65342 0.007,209.09092 l -0.77641,97.1591 H 378.20088 201.13636 Z"
     id="path229" />
  <path
     style="fill:#77767b;fill-opacity:1;stroke-width:2.27273"
     d="m 519.31818,698.815 c 0,-1.56955 -45.08377,-1.88045 -139.20454,-0.95997 -90.37296,0.88382 -140.33365,0.57261 -142.42329,-0.88719 -2.59863,-1.81538 -0.19041,-6.31583 12.5,-23.35985 8.6453,-11.61119 15.71874,-21.67303 15.71874,-22.35963 0,-0.6866 2.04546,-3.31601 4.54546,-5.84315 2.5,-2.52713 6.07954,-6.8977 7.95454,-9.71237 l 3.40909,-5.11758 114.77273,1.9899 c 63.24059,1.09645 115.74214,1.12038 116.93182,0.0533 2.92547,-2.62404 9.75522,-2.45023 11.44963,0.29139 0.75734,1.22541 3.90009,10.68564 6.98389,21.02273 3.0838,10.33709 7.13602,22.03693 9.00495,25.99963 1.86891,3.96271 4.028,10.35475 4.79796,14.20455 l 1.39993,6.99962 h -13.92045 c -7.95959,0 -13.92046,-0.99403 -13.92046,-2.32136 z"
     id="path230" />
  <path
     style="fill:#77767b;fill-opacity:1;stroke-width:2.27273"
     d="m 1362.6921,698.66046 c -31.7693,-1.13528 -58.02,-2.32173 -58.3349,-2.63658 -0.3148,-0.31484 3.6793,-14.63423 8.8759,-31.82088 l 9.4483,-31.24845 117.6366,-0.40585 c 64.7001,-0.22321 119.5813,-0.47889 121.9582,-0.56818 2.9195,-0.10967 10.9617,8.42273 24.7885,26.29943 11.2568,14.55398 22.1051,28.96196 24.1073,32.01774 l 3.6404,5.55596 -78.9971,1.50446 c -43.4484,0.82746 -87.1789,1.92342 -97.1789,2.43548 -10,0.51206 -44.175,0.002 -75.9443,-1.13313 z"
     id="path231" />
  <path
     style="fill:#77767b;fill-opacity:1;stroke-width:2.27273"
     d="m 273.86364,1294.5185 c 0,-1.399 -9.72502,-17.1017 -21.61115,-34.8947 l -21.61115,-32.3511 11.41923,-1.4606 c 14.95521,-1.9129 278.10893,-4.2841 290.53129,-2.618 8.48478,1.1381 9.39207,1.826 8.03244,6.0899 -0.843,2.6438 -1.63516,6.341 -1.76035,8.216 -0.12518,1.875 -0.77725,3.9205 -1.44906,4.5455 -2.57062,2.3914 -8.82828,21.1758 -7.67564,23.0408 0.66595,1.0775 0.28964,1.9592 -0.8363,1.9592 -1.8707,0 -8.15434,16.2266 -8.36088,21.5909 -0.0481,1.25 -1.41496,3.118 -3.03737,4.1511 -4.8162,3.067 -243.64106,4.7637 -243.64106,1.731 z"
     id="path232" />
  <path
     style="fill:#5e5c64;fill-opacity:1;stroke-width:2.27273"
     d="m 272.06948,1293.2315 c -1.61178,-1.9023 -2.12314,-3.4913 -1.13636,-3.5311 0.98678,-0.04 -0.19109,-1.5738 -2.61751,-3.409 -2.42641,-1.8353 -3.44913,-3.3694 -2.27272,-3.4091 1.17641,-0.04 0.0935,-1.6179 -2.40653,-3.507 -2.5,-1.889 -4.39204,-4.1576 -4.20454,-5.0413 0.1875,-0.8837 -0.51435,-1.3728 -1.55966,-1.0868 -1.04531,0.2859 -1.80463,-1.2482 -1.68737,-3.4091 0.11727,-2.161 -5.56564,-12.6222 -12.62867,-23.2472 l -12.84189,-19.3182 11.91561,-1.5281 c 6.55359,-0.8405 76.1272,-1.8632 154.60802,-2.2727 124.90982,-0.6518 142.96148,-0.3198 144.85155,2.6645 2.83652,4.4785 2.81354,7.4478 -0.044,5.6818 -1.97804,-1.2225 -3.35279,3.3869 -2.54186,8.5227 0.14802,0.9375 -0.62068,1.7046 -1.70823,1.7046 -1.53468,0 -5.90309,11.8183 -8.40063,22.7272 -0.14309,0.625 -2.032,5.1171 -4.19759,9.9825 -2.16559,4.8653 -4.07855,10.7193 -4.25103,13.0089 -0.17245,2.2895 -1.8877,4.8739 -3.81166,5.7431 -1.92395,0.8691 -57.19127,1.9409 -122.81627,2.3817 -104.68373,0.703 -119.67761,0.3771 -122.2487,-2.6574 z"
     id="path233" />
  <path
     style="fill:#5e5c64;fill-opacity:1;stroke-width:2.27273"
     d="m 266.27289,1282.5625 c -4.79991,-6.463 -9.66711,-14.2232 -10.81599,-17.245 -1.14887,-3.0218 -6.60867,-12.481 -12.13287,-21.0206 -8.10881,-12.5349 -9.3732,-15.7838 -6.56243,-16.8624 5.38889,-2.0679 277.43729,-4.4864 292.38783,-2.5993 11.15775,1.4084 12.99077,2.2677 11.65377,5.4635 -0.87261,2.0857 -6.31938,16.7273 -12.10397,32.5367 l -10.51741,28.7446 -9.9763,1.3691 c -5.48697,0.753 -60.20287,1.368 -121.59091,1.3666 H 275 Z"
     id="path234" />
</svg>
